<svg xmlns="http://www.w3.org/2000/svg" xml:space="preserve" width="490.408" height="116.253" viewBox="0 0 490.408 116.253"><path d="M1230.67 482.391c20.21 0 32.8 10.312 32.8 35.402 0 25.23-12.59 34.715-32.8 34.715h-6.74v-70.117zm-28.4 86.703h29.72c33.09 0 53.59-16.449 53.59-51.301 0-34.703-20.5-51.992-52.42-51.992h-30.89v103.293M1348.13 512.781c0 10.453-4.97 17.141-15.52 17.141-8.64 0-16.25-5.852-17.87-17.141zm-54.02-7.949c0 25.227 18.74 40.981 38.21 40.981 22.55 0 34.26-15.754 34.26-37.211 0-3.907-.44-7.668-1.03-9.485h-50.51c1.76-12.816 10.55-19.515 22.7-19.515 6.73 0 12.59 1.957 18.44 5.437l7.32-12.539c-8.05-5.309-18.44-8.648-28.54-8.648-23 0-40.85 15.199-40.85 40.98M1381.4 527.695h-10.99v15.192l10.99.836v6.414c0 16.304 7.9 28.851 28.54 28.851 6.3 0 11.87-1.39 15.53-2.644l-3.95-15.199c-2.78 1.121-6.01 1.671-8.64 1.671-6.45 0-9.96-3.621-9.96-12.261v-6.688h15.37v-16.172h-15.37v-61.894h-21.52v61.894M1473.51 512.781c0 10.453-4.98 17.141-15.52 17.141-8.64 0-16.25-5.852-17.87-17.141zm-54.03-7.949c0 25.227 18.75 40.981 38.22 40.981 22.54 0 34.26-15.754 34.26-37.211 0-3.907-.44-7.668-1.03-9.485h-50.51c1.76-12.816 10.54-19.515 22.7-19.515 6.73 0 12.59 1.957 18.44 5.437l7.32-12.539c-8.05-5.309-18.44-8.648-28.55-8.648-22.99 0-40.85 15.199-40.85 40.98M1503.84 543.867h17.58l1.6-10.32h.45c7.16 6.695 15.51 12.266 26.64 12.266 17.72 0 25.33-11.711 25.33-31.364v-48.648h-21.52v46.144c0 12.125-3.51 16.305-11.57 16.305-6.73 0-10.99-3.07-16.99-8.781v-53.668h-21.52v78.066M1584.11 474.859l9.81 12.832c7.32-5.429 14.35-8.511 21.96-8.511 8.2 0 11.86 3.351 11.86 8.23 0 5.856-8.49 8.5-17.13 11.707-10.39 3.762-21.96 9.754-21.96 22.863 0 13.938 11.86 23.833 30.6 23.833 11.86 0 21.09-4.735 27.82-9.614l-9.67-12.41c-5.84 4.043-11.56 6.688-17.56 6.688-7.47 0-10.98-3.063-10.98-7.524 0-5.715 7.61-7.801 16.25-10.871 10.83-3.898 22.84-9.059 22.84-23.559 0-13.664-11.28-24.671-32.65-24.671-10.98 0-22.99 4.609-31.19 11.007M1707.41 512.781c0 10.453-4.97 17.141-15.51 17.141-8.64 0-16.25-5.852-17.87-17.141zm-54.02-7.949c0 25.227 18.74 40.981 38.22 40.981 22.54 0 34.26-15.754 34.26-37.211 0-3.907-.44-7.668-1.03-9.485h-50.51c1.76-12.816 10.54-19.515 22.69-19.515 6.74 0 12.6 1.957 18.45 5.437l7.32-12.539c-8.05-5.309-18.45-8.648-28.55-8.648-22.99 0-40.85 15.199-40.85 40.98M1761.48 516.961c0 34.012 22.99 53.941 50.37 53.941 13.77 0 24.74-6.269 31.78-13.238l-11.28-13.105c-5.57 5.023-11.86 8.648-20.06 8.648-16.4 0-28.7-13.383-28.7-35.551 0-22.437 11.12-35.965 28.26-35.965 9.37 0 16.54 4.18 22.41 10.176l11.42-12.816c-8.94-9.903-20.51-15.199-34.56-15.199-27.38 0-49.64 18.679-49.64 53.109M1907.19 504.832c0 14.637-6.29 24.254-17.42 24.254-11.13 0-17.43-9.617-17.43-24.254 0-14.773 6.3-24.254 17.43-24.254 11.13 0 17.42 9.481 17.42 24.254zm-56.8 0c0 25.926 18.88 40.981 39.38 40.981 20.5 0 39.39-15.055 39.39-40.981 0-25.934-18.89-40.98-39.39-40.98s-39.38 15.046-39.38 40.98M1940.46 495.074v48.793h21.52v-46.14c0-11.989 3.51-16.305 11.42-16.305 6.73 0 11.13 2.777 16.69 9.754v52.691h21.52v-78.066h-17.56l-1.61 11.148h-.59c-7.03-7.937-14.94-13.097-26.06-13.097-17.72 0-25.33 11.707-25.33 31.222M2028.77 543.867h17.58l1.61-10.32h.44c7.17 6.695 15.52 12.266 26.64 12.266 17.72 0 25.34-11.711 25.34-31.364v-48.648h-21.53v46.144c0 12.125-3.51 16.305-11.56 16.305-6.74 0-10.99-3.07-16.99-8.781v-53.668h-21.53v78.066M2119.88 493.121v34.574h-11.56v15.192l12.73.98 2.49 21.039h17.86v-21.039h20.21v-16.172h-20.21v-34.574c0-8.922 3.81-13.101 11.14-13.101 2.63 0 5.85.839 8.05 1.671l3.51-14.91c-4.4-1.39-10.1-2.929-17.28-2.929-19.47 0-26.94 11.847-26.94 29.269M2218.58 512.781c0 10.453-4.98 17.141-15.52 17.141-8.64 0-16.26-5.852-17.87-17.141zm-54.03-7.949c0 25.227 18.74 40.981 38.22 40.981 22.54 0 34.26-15.754 34.26-37.211 0-3.907-.44-7.668-1.03-9.485h-50.51c1.76-12.816 10.54-19.515 22.69-19.515 6.74 0 12.6 1.957 18.45 5.437l7.32-12.539c-8.05-5.309-18.44-8.648-28.55-8.648-22.99 0-40.85 15.199-40.85 40.98M2248.91 543.867h17.57l1.61-13.808h.44c6.01 10.183 14.79 15.754 23.28 15.754 4.54 0 7.18-.692 9.67-1.672l-3.67-17.7c-2.92.836-5.27 1.254-8.64 1.254-6.43 0-14.2-4.043-18.74-15.332v-46.562h-21.52v78.066M2306.91 543.867h21.52v-78.066h-21.52zm-1.75 23.828c0 6.696 5.12 11.157 12.58 11.157 7.33 0 12.45-4.461 12.45-11.157 0-6.832-5.12-11.293-12.45-11.293-7.46 0-12.58 4.461-12.58 11.293M2345.57 543.867h17.58l1.61-10.32h.44c7.17 6.695 15.52 12.266 26.64 12.266 17.73 0 25.34-11.711 25.34-31.364v-48.648h-21.53v46.144c0 12.125-3.51 16.305-11.56 16.305-6.74 0-10.99-3.07-16.99-8.781v-53.668h-21.53v78.066M2436.68 493.121v34.574h-11.56v15.192l12.74.98 2.48 21.039h17.87v-21.039h20.2v-16.172h-20.2v-34.574c0-8.922 3.81-13.101 11.13-13.101 2.63 0 5.85.839 8.05 1.671l3.51-14.91c-4.39-1.39-10.1-2.929-17.28-2.929-19.47 0-26.94 11.847-26.94 29.269M2535.39 512.781c0 10.453-4.98 17.141-15.52 17.141-8.64 0-16.26-5.852-17.87-17.141zm-54.03-7.949c0 25.227 18.74 40.981 38.22 40.981 22.54 0 34.26-15.754 34.26-37.211 0-3.907-.44-7.668-1.03-9.485h-50.51c1.76-12.816 10.54-19.515 22.69-19.515 6.74 0 12.6 1.957 18.45 5.437l7.32-12.539c-8.05-5.309-18.44-8.648-28.55-8.648-22.99 0-40.85 15.199-40.85 40.98M2565.72 487.691v89.344h21.52v-90.183c0-4.743 2.2-6.274 4.25-6.274.88 0 1.46 0 2.93.281l2.63-15.191c-2.49-.977-6-1.816-11.13-1.816-14.93 0-20.2 9.339-20.2 23.839M2605.99 487.691v89.344h21.52v-90.183c0-4.743 2.2-6.274 4.26-6.274.87 0 1.46 0 2.92.281l2.64-15.191c-2.49-.977-6.01-1.816-11.13-1.816-14.94 0-20.21 9.339-20.21 23.839M2646.26 543.867h21.53v-78.066h-21.53zm-1.75 23.828c0 6.696 5.12 11.157 12.59 11.157 7.32 0 12.45-4.461 12.45-11.157 0-6.832-5.13-11.293-12.45-11.293-7.47 0-12.59 4.461-12.59 11.293M2727.98 517.656c0 9.059-5.57 14.219-12.89 14.219s-12.88-5.16-12.88-14.219c0-9.336 5.71-14.496 12.88-14.496 7.18 0 12.89 5.16 12.89 14.496zm9.81-61.476c0 5.582-4.83 6.968-13.62 6.968h-9.95c-4.98 0-8.5.43-11.42 1.122-3.66-2.79-5.28-5.848-5.28-9.059 0-6.551 7.61-10.32 19.48-10.32 12.3 0 20.79 5.16 20.79 11.289zm-58.28-4.18c0 6.551 4.25 12.129 11.72 16.168v.703c-4.25 2.649-7.47 6.688-7.47 13.098 0 5.851 4.25 11.297 9.22 14.64v.555c-5.7 3.906-10.98 11.293-10.98 20.492 0 18.262 15.67 28.157 33.09 28.157 4.54 0 8.94-.836 12.31-1.946h29.57v-15.062h-13.91c2.05-2.645 3.66-6.969 3.66-11.844 0-17.563-14.05-26.484-31.63-26.484-3.21 0-7.02.699-10.53 1.808-2.21-1.808-3.52-3.48-3.52-6.683 0-4.18 3.22-6.422 12.89-6.422h13.9c19.77 0 30.61-5.852 30.61-19.508 0-15.75-17.29-27.742-44.67-27.742-19.32 0-34.26 6.269-34.26 20.07M2812.64 512.781c0 10.453-4.98 17.141-15.52 17.141-8.64 0-16.25-5.852-17.87-17.141zm-54.03-7.949c0 25.227 18.74 40.981 38.22 40.981 22.54 0 34.26-15.754 34.26-37.211 0-3.907-.44-7.668-1.03-9.485h-50.51c1.76-12.816 10.54-19.515 22.7-19.515 6.73 0 12.59 1.957 18.44 5.437l7.32-12.539c-8.05-5.309-18.44-8.648-28.55-8.648-22.99 0-40.85 15.199-40.85 40.98M2842.97 543.867h17.58l1.6-10.32h.45c7.16 6.695 15.51 12.266 26.64 12.266 17.72 0 25.33-11.711 25.33-31.364v-48.648h-21.52v46.144c0 12.125-3.52 16.305-11.57 16.305-6.73 0-10.98-3.07-16.99-8.781v-53.668h-21.52v78.066M2925.88 504.832c0 25.926 19.62 40.981 41.87 40.981 10.1 0 17.87-3.762 23.87-8.641l-10.25-13.246c-4.1 3.351-7.91 5.16-12.45 5.16-12.59 0-21.08-9.617-21.08-24.254 0-14.773 8.63-24.254 20.35-24.254 5.86 0 11.42 2.652 15.96 6.274l8.64-13.524c-7.9-6.547-17.86-9.476-26.94-9.476-22.7 0-39.97 15.046-39.97 40.98M3046.83 512.781c0 10.453-4.97 17.141-15.51 17.141-8.64 0-16.26-5.852-17.87-17.141zm-54.02-7.949c0 25.227 18.74 40.981 38.22 40.981 22.54 0 34.26-15.754 34.26-37.211 0-3.907-.44-7.668-1.03-9.485h-50.51c1.76-12.816 10.54-19.515 22.69-19.515 6.74 0 12.6 1.957 18.45 5.437l7.32-12.539c-8.05-5.309-18.45-8.648-28.55-8.648-22.99 0-40.85 15.199-40.85 40.98M3100.9 516.961c0 34.012 22.99 53.941 50.37 53.941 13.76 0 24.74-6.269 31.77-13.238l-11.27-13.105c-5.57 5.023-11.86 8.648-20.06 8.648-16.4 0-28.7-13.383-28.7-35.551 0-22.437 11.12-35.965 28.26-35.965 9.37 0 16.54 4.18 22.4 10.176l11.42-12.816c-8.93-9.903-20.5-15.199-34.56-15.199-27.38 0-49.63 18.679-49.63 53.109M3246.62 504.832c0 14.637-6.3 24.254-17.43 24.254-11.13 0-17.43-9.617-17.43-24.254 0-14.773 6.3-24.254 17.43-24.254 11.13 0 17.43 9.481 17.43 24.254zm-56.82 0c0 25.926 18.89 40.981 39.39 40.981s39.38-15.055 39.38-40.981c0-25.934-18.88-40.98-39.38-40.98-20.5 0-39.39 15.046-39.39 40.98M3280.75 543.867h17.58l1.61-10.457h.44c6.88 6.832 14.49 12.403 25.18 12.403 11.71 0 18.59-5.016 22.55-13.657 7.47 7.524 15.37 13.657 26.06 13.657 17.43 0 25.48-11.711 25.48-31.364v-48.648h-21.52v46.144c0 12.125-3.67 16.305-11.42 16.305-4.69 0-9.96-2.926-15.82-8.781v-53.668h-21.38v46.144c0 12.125-3.81 16.305-11.56 16.305-4.69 0-9.96-2.926-15.68-8.781v-53.668h-21.52v78.066M3416.09 543.867h17.57l1.61-10.457h.44c6.88 6.832 14.49 12.403 25.18 12.403 11.72 0 18.6-5.016 22.55-13.657 7.47 7.524 15.38 13.657 26.07 13.657 17.42 0 25.48-11.711 25.48-31.364v-48.648h-21.53v46.144c0 12.125-3.66 16.305-11.42 16.305-4.69 0-9.96-2.926-15.82-8.781v-53.668h-21.38v46.144c0 12.125-3.8 16.305-11.56 16.305-4.69 0-9.96-2.926-15.67-8.781v-53.668h-21.52v78.066M3594.62 487.551v15.746c-20.06-2.363-26.8-7.66-26.8-14.637 0-6.129 4.55-8.781 10.84-8.781 6.15 0 10.69 2.793 15.96 7.672zm-47.3-.563c0 16.727 14.2 25.512 47.3 28.856-.44 7.664-3.95 13.523-14.06 13.523-7.62 0-14.94-3.207-22.55-7.387l-7.75 13.52c9.65 5.715 21.36 10.313 34.26 10.313 20.79 0 31.48-11.848 31.48-34.43v-45.582h-17.57l-1.47 8.367h-.59c-7.17-5.859-15.37-10.316-24.75-10.316-14.63 0-24.3 9.898-24.3 23.136M3632.12 543.867h17.58l1.6-10.32h.45c7.17 6.695 15.52 12.266 26.64 12.266 17.72 0 25.33-11.711 25.33-31.364v-48.648h-21.52v46.144c0 12.125-3.51 16.305-11.57 16.305-6.73 0-10.98-3.07-16.99-8.781v-53.668h-21.52v78.066M3769.94 488.805v34.285c-4.99 4.324-10.26 5.859-15.38 5.859-9.22 0-16.99-8.367-16.99-23.972 0-16.172 6.15-24.258 16.99-24.258 5.71 0 10.54 2.23 15.38 8.086zm-54.48 16.027c0 25.371 16.7 40.981 34.42 40.981 9.22 0 14.93-3.344 20.79-8.504l-.73 12.273v27.453h21.38V465.801h-17.43l-1.61 8.09h-.59c-6-5.582-14.2-10.039-22.7-10.039-20.35 0-33.53 15.328-33.53 40.98M1371.32 863.336v-56.387h109.88V664.254h-57.09v97.594h-223.62v45.101h114.17v56.387h-150.23v45.547h251.53c7.29 36.433 8.59 65.492 8.59 91.947h-215.91v45.98h271.7v-32.1c0-29.917 0-63.319-7.73-105.827h49.79v-45.547h-151.08M1646.95 716.734h223.62v-45.546h-280.28v128.824h56.66zm259.68 178.704v-45.981h-147.65v-84.582h-56.66v84.582h-153.67v45.981h251.54c8.15 41.636 9.01 73.738 9.01 104.101h-216.34v45.971H1865v-35.13c0-32.532 0-68.962-8.16-114.942h49.79M2296.43 970.477v-46.848h-52.37v-95.422h-56.66V1063.3h56.66v-92.823zm-104.3-229.02c0 22.559-27.05 33.402-77.7 33.402-50.21 0-77.26-10.843-77.26-33.402 0-22.555 27.05-33.394 77.26-33.394 50.65 0 77.7 10.839 77.7 33.394zm-114.18 203.422h-77.69v-49.441h77.69zm170.4-203.422c0-48.578-51.51-77.641-133.92-77.641-81.98 0-133.48 29.063-133.48 77.641 0 49.016 51.5 78.078 133.48 78.078 82.41 0 133.92-29.062 133.92-78.078zm-114.6 109.301h-189.29v187.382h55.8v-49.452h77.69v49.452h55.8V850.758M2647.6 1063.3V841.219h-56.66v75.902h-59.66v46.414h59.66v99.765zm-56.23-316.202h-149.8v-32.535h149.8zm0 78.937h56.23V669.02h-261.83v157.015h55.8v-34.691h149.8zm-61.8 16.918c-45.07 11.277-76.41 36-94.86 67.231-17.17-34.27-48.94-61.161-94.87-73.739l-25.75 44.676c62.24 16.051 90.14 57.692 91.43 99.766h-77.26V1026h77.26v38.6h56.66V1026h78.12v-45.113h-78.12c1.28-39.469 30.04-78.074 92.28-93.688l-24.89-44.246M3068.3 862.469h-57.52V664.254h-56.65v399.476h56.65V910.184h57.52zm-221.48 112.34c0-71.996 27.9-144.43 91.43-176.098l-34.35-45.109c-41.2 21.257-69.1 59.855-85.41 107.566-17.17-50.746-46.79-92.82-91.42-114.938l-33.91 46.407c66.53 31.664 96.57 108.008 96.57 182.172v58.121h57.09v-58.121M3359.38 881.992h-63.52v45.543h63.52v37.301h-63.52v45.544h63.52v53.35h56.66V820.828h-56.66zm2.15-144.008c0 22.125-27.04 32.532-78.98 32.532-51.93 0-78.54-10.407-78.54-32.532 0-21.683 26.61-32.089 78.54-32.089 51.94 0 78.98 10.406 78.98 32.089zm56.65 0c0-47.273-51.5-75.468-135.63-75.468s-135.21 28.195-135.21 75.468c0 48.149 51.08 75.911 135.21 75.911 84.13 0 135.63-27.762 135.63-75.911zm-125.33 104.969c-45.93-8.676-86.7-9.973-161.81-9.973h-30.48v127.95h116.75v36.441h-117.18v45.539h172.98V918.422h-116.32v-39.469c56.66.434 91.42 2.168 130.48 9.113l5.58-45.113M3729.44 958.332h-162.68v-41.211h162.68zm55.8-86.75h-274.7v176.968h56.22V1003h162.68v45.55h55.8zm42.49-83.277h-151.95V663.816h-56.65v124.489h-149.37v45.535h357.97v-45.535" style="fill:#231f20" transform="matrix(.13333 0 0 -.13333 -19.956 157.9)"/><path d="M585.629 312.352c-240.77 0-435.957 195.214-435.957 435.953 0 240.754 195.187 435.945 435.957 435.945 240.723 0 435.861-195.191 435.861-435.945 0-240.739-195.138-435.953-435.861-435.953" style="fill:#fff" transform="matrix(.13333 0 0 -.13333 -19.956 157.9)"/><path d="m684.547 1124.45-9.965-18.29-35.363-6.18 53.558-41.91-8.23 66.38M571.242 1072.45l-79.195-31.76-5.047-20.21-15.816-13.63 60.824 24.92 2.09 11.8 37.144 28.88M613.18 1054.71l-53.028-72.448-58.172-5.035 73.555-15.204 37.645 92.687M678.359 887.199l24.289 65.418-54.136-36.355-1.449-33.035-22.887-61.321-20.512-42 44.141 46.231 30.554 61.062" style="fill:#e31b22" transform="matrix(.13333 0 0 -.13333 -19.956 157.9)"/><path d="M192.363 877.219c48.399 169.191 206.262 293.191 393.621 293.191 176.875 0 327.571-110.59 384.52-265.34l-52.402 13.922-132.899-35.25-145.984-102.633 106.508 118.563L898.043 968.5l-56.902 56.8-37.532-56.976-80.898-36.648 62.91 61.933 24.367 55.631-55.164 30.33-10.304-44.28-71.868-41.681 42.325 48.081 7.734 42.91-17.461 55.17-54.812-2.07-28.883-26.17-156.899-56.82-16.652-28.89-114.172-57.16 11.992-15.172 25.219 16.782-19.176-27.887 25.059-53.899 12.359 37.676 73.973 28.824 44.734-17.07-34.656-2.766 59.602-75.515-61.77-49.188-50.023 13.985 35.378-63.524 52.594-12.828 13.375 72.461 16.586-49.25 26.121 117.789c23.84-95.75-22.293-202.484-122.66-237.137-100.332-34.656-210.277 17.375-245.48 116.231-12.106 33.98-13.309 70.402-6.172 103.402.609 2.797 1.476 5.645 1.476 5.645" style="fill:#e31b22" transform="matrix(.13333 0 0 -.13333 -19.956 157.9)"/><path d="M981.469 870.512c-67.352 26.879-171.77-11.617-171.77-11.617 126.184 0 169.774-64.668 184.789-109.305.254 5.996.418 12.086.418 18.273 0 35.477-4.644 69.891-13.437 102.649" style="fill:#e31b22" transform="matrix(.13333 0 0 -.13333 -19.956 157.9)"/><path d="M975.73 635.914c0 100.332-78.058 178.133-178.39 178.133-89 0-153.922-66.242-178.613-148.539-41.36-137.899-148.379-139.457-197.825-137.61 0 0-112.851-7.957-195.621 104.223 54.621-140.246 200.41-218.891 360.782-203.461v-13.269c-184.641-37.032-337.262 61.308-407.086 220.972 49.039-178.851 212.703-310.164 407.086-310.164 153.074 0 287.066 81.481 361.07 203.5 31.844 52.61 28.597 106.215 28.597 106.215" style="fill:#22326e" transform="matrix(.13333 0 0 -.13333 -19.956 157.9)"/><path d="M585.629 367.449 572.883 385.5c-3.711 5.738-10.59 10.43-29.688 20.41-25.718 13.461-41.89 38.801-49.394 53.11l-18.164-6.282 6.718 43.848h-32.23c-21.492 0-33.223 15.43-37.578 30.766-7.957 2.218-14.371 6.3-19.098 12.214-4.726 5.883-6.75 12.375-7.601 17.68-21.493 8.906-26.715 32.762-26.942 33.871l-3.101 15.192h166.414c2.781-.02 15.929-.485 26.984-8.633l5.856.547 3.211 7.632 2.187 36.586h-16.828c-12.234 0-22.184 9.918-22.184 22.164 0 12.235 9.95 22.168 22.184 22.168h4.887a39.94 39.94 0 0 0-3.008 15.239c0 22.086 17.972 40.054 40.058 40.054 22.082 0 40.055-17.968 40.055-40.054 0-1.399-.062-2.828-.207-4.246h.191c8.567 0 16.766-3.633 22.489-9.996l15.156-16.864c5.387-5.976 8.117-13.758 7.699-21.843-.129-2.266-.48-4.5-1.094-6.622a31.747 31.747 0 0 0 8.942-2.507c7.391-3.344 13.016-9.356 15.848-16.911l6.265-16.714h114.543l-3.113-15.161c-.242-1.14-5.469-24.996-26.957-33.882-.82-5.325-2.879-11.817-7.606-17.7-4.742-5.914-11.156-9.984-19.093-12.214-4.34-15.336-16.09-30.766-37.567-30.766h-32.226l6.683-43.848-18.129 6.274c-7.91-15.203-23.824-39.692-49.429-53.102-19.078-9.98-25.957-14.672-29.446-20.09l-12.941-18.371" style="fill:#fff" transform="matrix(.13333 0 0 -.13333 -19.956 157.9)"/><path d="m668.859 478.969-1.187-3.071c-.16-.386-15.785-39.418-47.082-55.757-19.723-10.34-29.11-16.27-34.961-24.84-5.883 8.57-15.27 14.5-34.992 24.84-31.297 16.339-46.918 55.371-47.082 55.757l-1.188 3.071-6.847-2.399 3.328 21.817 16.183-15.125-6.91-2.512 2.828-3.711c24.594-31.949 48.321-38.367 49.332-38.629l4.004-1.039 4.082 68.442.418 6.796 2.477 41.473.207 3.52.211 3.586.129 1.929 5.687 95.348h-33.867c-3.391 0-6.156 2.75-6.156 6.14 0 3.391 2.765 6.141 6.156 6.141H627.582l1.703-.258c2.25-.672 3.957-2.523 4.36-4.851l.093-1.032c0-.945-.222-1.847-.609-2.652-.691-1.461-1.961-2.586-3.488-3.133l-2.059-.355H593.73l5.692-95.363.129-1.914.222-3.586.196-3.52 2.472-41.473.418-6.796 4.082-68.442 4.02 1.039c.98.262 24.723 6.68 49.316 38.629l2.828 3.711-6.91 2.512 16.172 15.125 3.34-21.817zm-107.308 26.844-3.535-59.333c-7.075 2.989-22.524 11.27-38.739 31.071l8.551 3.109-26.894 25.153zm28.531 187.39c-1.367-.676-2.879-1.125-4.516-1.125-5.464 0-9.918 4.469-9.918 9.934 0 5.48 4.454 9.918 9.918 9.918 4.469 0 8.231-2.992 9.465-7.028l-2.492-1.558c-2.891-2.637-3.726-6.653-2.457-10.141m-28.562 8.809c0 13.261 10.8 24.062 24.046 24.062 13.278 0 24.079-10.801 24.079-24.062 0-1.11-.098-2.219-.258-3.297l-.867.965-2.7 3.019-2.058 1.656-1.801.903c-1.527 7.668-8.277 13.469-16.395 13.469-9.195 0-16.687-7.524-16.687-16.715 0-9.227 7.492-16.719 16.687-16.719 3.149 0 6.043.934 8.551 2.441l4.918-5.687c-3.859-2.57-8.484-4.098-13.469-4.098-13.246 0-24.046 10.785-24.046 24.063m50.89-15.176 1.574-1.754 1.93-2.152 1.961-2.153 2.895-3.214.707-.805c-2.539 0-5.598 0-8.329.015h-1.605l-.727.79-.371.417-1.925 2.137-.614.676-.48.547-4.051 4.5-.496.578-3.106 3.426-1.398 1.558-2.297 2.571-.758 1.367c-.398 1.305-.047 2.812 1.114 3.844l.546.382 2.086.516c.965-.051 1.864-.449 2.508-1.172l.324-.371 1.477-1.656 3.555-3.938.625-.691 4.293-4.789zm13.18-3.938c4.195 0 8.39-1.718 11.414-5.109l15.172-16.863c2.73-3.008 4.113-6.961 3.89-11.074a15.733 15.733 0 0 0-.468-3.024l-1.203 1.945c-1.481 2.379-3.891 3.809-6.497 4.227-.289.965-.8 1.93-1.507 2.75l-6.032 6.656.211 2.199c0 6.915-5.465 12.571-12.312 12.922l-.61.871-3.875 4.34 1.817.16m8.777-29.351a12.97 12.97 0 0 1 3.488 3.137l4.227-4.68-.66-.32a9.471 9.471 0 0 1-2.828-2.813zm4.563-24.496 1.16-.031c1.445 0 2.859.144 4.242.433l3.602-5.773c-3.618-5.414-4.696-12.473-2.219-19.028l2.859-7.554c-2.699-.067-16.601-.918-25.301-10.676l-17.39-16.988-4.903 82.218h9.34l14.082-15.691c3.727-4.16 8.903-6.621 14.528-6.91m31.379-123.238-26.942-25.153 8.582-3.109c-16.23-19.801-31.679-28.082-38.703-31.071l-3.57 59.333zm-1.625 102.324.082.066.867.66 4.402-11.765h-5l-3.66 9.785a9.666 9.666 0 0 1 3.309 1.254m25.765-11.039-.465 1.445-7.988 21.234A20.9 20.9 0 0 1 675 631.527a21.103 21.103 0 0 1-10.93 1.766l-4.726 7.555c1.383 2.668 2.25 5.609 2.41 8.715.293 5.64-1.606 11.023-5.332 15.187l-15.176 16.848c-5.656 6.3-14.273 8.375-21.894 6.011l-4.434 4.95a30.72 30.72 0 0 1 1.508 9.453c0 16.988-13.836 30.843-30.86 30.843-17.007 0-30.832-13.855-30.832-30.843 0-9.953 4.758-18.793 12.106-24.449h-23.211c-7.152 0-12.973-5.821-12.973-12.958 0-7.152 5.821-12.953 12.973-12.953h26.633l-4.918-82.218-17.391 16.988c-9.422 10.609-25.109 10.676-25.734 10.676H367.09l.836-4.102c.047-.273 5.172-23.933 26.601-28.867-.015-4.242.754-12.152 6.09-18.774 4.473-5.562 11.059-8.988 19.629-10.191 1.817-11.512 9.692-29.351 29.879-29.351h42.949l-6.027-39.383 11.465 3.961c4.433-9.922 20.281-41.321 48.961-56.313 20.507-10.719 28.222-15.957 32.933-23.277l5.223-7.36 5.195 7.36c4.707 7.32 12.438 12.57 32.934 23.277 28.66 14.992 44.523 46.391 48.992 56.313l11.414-3.961-6.012 39.383h42.965c20.156 0 28.051 17.839 29.883 29.351 8.535 1.203 15.141 4.629 19.594 10.191 5.351 6.622 6.121 14.532 6.105 18.774 21.43 4.934 26.539 28.594 26.606 28.867l.836 4.102H694.449" style="fill:#7b7979" transform="matrix(.13333 0 0 -.13333 -19.956 157.9)"/><path d="M627.582 651.652h-9.609l10.672-11.863c2.73-3.039 6.492-4.84 10.593-5.066l1.785.035-2.543 4.051c-.835 1.332-1.253 2.812-1.351 4.304a7.264 7.264 0 0 0-2.699 1.867l-6.012 6.704-.836-.032M673.105 615.629l.29-.578 6.734-17.953h8.344l-7.782 20.668c-1.449 3.843-4.308 6.867-8.05 8.586a15.71 15.71 0 0 1-5.051 1.316l4.133-6.59a9.207 9.207 0 0 0 1.382-5.449M655.809 611.113l-4.438 7.086c-1.543-3.551-1.801-7.668-.32-11.539l3.601-9.562h8.309l-4.164 11.074a9.33 9.33 0 0 0-2.988 2.941M654.168 638.371l-1.574 2.543-3.039 4.836-2.075 1.543-1.027.18-1.914-.563a3.725 3.725 0 0 1-1.719-3.859l.465-1.238 3.488-5.559 1.512-2.414 1.543-2.426 2.059-3.277 1.511-2.446 1.528-2.445 4.324-6.894 1.383-2.235a3.539 3.539 0 0 1 2.281-1.59l.738-.097 1.996.531.094.062 1.125 1.125a3.619 3.619 0 0 1 .031 3.891l-1.156 1.867-4.371 6.977-1.574 2.488-1.527 2.477-2.559 4.05-1.543 2.473M606.559 558.082l.996-16.426H747.75c7.926.676 13.824 3.344 17.523 7.957 3.743 4.66 4.532 10.301 4.614 13.68H623.578c-.109 0-9.629-.098-17.019-5.211M609.289 512.609h111.813c16.461 0 21.425 15.032 22.859 22.2h-136.02l1.348-22.2M692.441 590.266h-43.414c-.144 0-13.375-.129-20.738-8.442l-.16-.176-12.859-12.585c4.566 1.046 8.023 1.078 8.328 1.046h147.109c15.559 1.028 22.215 13.5 24.672 20.157H692.441M563.285 534.809l-136.015.035c1.46-7.172 6.476-22.235 22.855-22.235h111.813l1.347 22.2M564.668 558.082c-7.395 5.113-16.91 5.211-17.023 5.211h-146.29c.098-3.395.872-9.082 4.633-13.727 3.696-4.566 9.578-7.234 17.489-7.91h140.195l.996 16.426M555.988 569.047l-13.05 12.777c-7.364 8.313-20.575 8.442-20.719 8.442H375.848c2.461-6.657 9.097-19.129 24.672-20.157h147.125c.308 0 3.781-.035 8.343-1.062M585.566 685.293c-9.195 0-16.687 7.492-16.687 16.719 0 9.191 7.492 16.715 16.687 16.715 8.102 0 14.868-5.821 16.395-13.469l1.801-.903 2.058-1.656 2.731-3.019.836-.965c.16 1.078.258 2.187.258 3.297 0 13.261-10.801 24.062-24.079 24.062-13.246 0-24.046-10.801-24.046-24.062 0-13.278 10.8-24.063 24.046-24.063a24.18 24.18 0 0 1 13.469 4.098l-4.918 5.687c-2.508-1.507-5.402-2.441-8.551-2.441M628.258 677.527c6.847-.351 12.312-6.007 12.312-12.922l-.211-2.199 6.012-6.687a6.96 6.96 0 0 0 1.527-2.735c2.606-.402 5.016-1.832 6.497-4.211l1.203-1.945c.257.981.422 1.977.468 3.024.223 4.113-1.16 8.066-3.89 11.074l-15.172 16.863a15.252 15.252 0 0 1-11.414 5.109l-1.832-.16 3.89-4.34.61-.871" style="fill:#fff" transform="matrix(.13333 0 0 -.13333 -19.956 157.9)"/><path d="m656.195 483.262 6.91-2.512-2.828-3.711c-24.578-31.949-48.32-38.367-49.347-38.629l-3.989-1.039-4.082 68.442-.418 6.796-2.472 41.473-.196 3.52-.222 3.586-.129 1.914-5.672 95.363H627.598l2.043.355c1.527.547 2.797 1.672 3.472 3.133a5.91 5.91 0 0 1 .625 2.652l-.093 1.032c-.403 2.328-2.11 4.179-4.36 4.851l-1.687.258h-83.969c-3.391 0-6.156-2.75-6.156-6.141 0-3.39 2.765-6.14 6.156-6.14h33.867l-5.687-95.348-.118-1.929-.222-3.586-.207-3.52-2.477-41.473-.418-6.796-4.066-68.442-4.02 1.039c-1 .262-24.738 6.68-49.332 38.629l-2.828 3.711 6.91 2.512-16.183 15.125-3.328-21.817 6.847 2.399 1.188-3.071c.164-.386 15.804-39.418 47.082-55.757 19.722-10.34 29.093-16.27 34.992-24.84 5.851 8.57 15.238 14.5 34.961 24.84 31.297 16.339 46.922 55.371 47.082 55.757l1.187 3.071 6.848-2.399-3.34 21.817-16.172-15.125M620.75 677.563l-2.875 3.214-1.961 2.153-1.93 2.152-1.574 1.754-.562.629-4.293 4.789-.625.691-3.555 3.938-1.477 1.656-.324.371c-.644.723-1.543 1.121-2.508 1.172l-2.086-.516-.546-.382c-1.145-1.032-1.512-2.539-1.114-3.844l.758-1.367 2.297-2.571 1.398-1.558 3.106-3.442.496-.562 4.051-4.5.48-.547.614-.676 1.945-2.137.351-.417.727-.79h1.605c2.731-.015 5.801-.015 8.329-.015l-.727.805" style="fill:#fff" transform="matrix(.13333 0 0 -.13333 -19.956 157.9)"/><path d="M584.953 515.07v38.657l-48.734-68.106zM584.953 557.762v84.164l-22.375-52.899zM565.633 549.84l17.875 5.883-78.828 26.023 42.629-37.969 18.324 6.063M587.285 554.5l44.653-62.418 4.07-5.691-12.524 56.164-36.199 11.945M587.285 556.992 666.129 583l-56.469 5.254-12.844-17.953-9.531-13.309" style="fill:#eded06" transform="matrix(.13333 0 0 -.13333 -19.956 157.9)"/><path d="m587.688 555.754 36.199-11.977 42.629 37.969-30.414-10.031-48.414-15.961M547.695 542.555l-12.504-56.164L583.91 554.5ZM561.613 588.156l-.078.098L505.066 583l78.844-26.008-22.297 31.164M586.238 515.07l48.739-29.449-48.739 68.106zM586.238 641.926v-84.164l22.379 31.265z" style="fill:#ed192e" transform="matrix(.13333 0 0 -.13333 -19.956 157.9)"/><path d="M631.938 492.082 587.285 554.5l36.215-11.945 12.508-56.145Zm-45.7 22.988v38.657l48.739-68.118zm0 126.856 22.379-52.899-22.379-31.265zM666.129 583l-78.844-26.008 9.531 13.309 12.844 17.953zm-42.242-39.207-36.199 11.961 48.414 15.961 30.414 10.031zm-38.934 13.969-22.375 31.265 22.375 52.899zm0-36.664v-6.028l-48.734-29.449 48.734 68.106zm-37.258 21.457 36.2 11.945-48.704-68.09zm-43.015 39.191 78.828-25.992-17.875-5.914-18.324-6.047zm56.855 6.508.063-.098 22.297-31.164L505.066 583Zm63.219-45.406 46.101 41.035-61.066 5.676-23.598 55.804-.578 1.496-.593-1.496-23.629-55.804-59.571-5.563-1.543-.113 1.188-1.012 44.976-40.043-13.503-60.707 52.675 31.824 51.391-31.086 1.348-.789-.418 1.621-13.18 59.157" style="fill:#7b7979" transform="matrix(.13333 0 0 -.13333 -19.956 157.9)"/></svg>