<?xml version="1.0" encoding="utf-8"?>
<!-- Generator: Adobe Illustrator 24.3.0, SVG Export Plug-In . SVG Version: 6.00 Build 0)  -->
<svg version="1.1" id="Layer_1" xmlns="http://www.w3.org/2000/svg" xmlns:xlink="http://www.w3.org/1999/xlink" x="0px" y="0px"
	 viewBox="0 0 1000 1000" style="enable-background:new 0 0 1000 1000;" xml:space="preserve">
<style type="text/css">
	.st0{fill:#FFFFFF;}
	.st1{font-family:'MyriadPro-Regular';}
	.st2{font-size:157.7494px;}
	.st3{fill:#122A4B;}
	.st4{fill:#E74C26;}
	.st5{fill:#020202;}
	.st6{fill:#D1D3D4;}
</style>
<text transform="matrix(1 0 0 1 -796.1608 -151.5801)" class="st0 st1 st2">Illinois University Logo</text>
<g id="XMLID_1_">
	<polygon id="XMLID_3_" class="st3" points="709.8,360.2 709.8,197 290.2,197 290.2,360.2 383.5,360.2 383.5,639.8 290.2,639.8 
		290.2,803 709.8,803 709.8,639.8 616.5,639.8 616.5,360.2 	"/>
	<path id="XMLID_4_" class="st4" d="M616.5,336.9h69.9V220.3H313.5v116.5h69.9c12.9,0,23.3,10.4,23.3,23.3v279.7
		c0,12.9-10.4,23.3-23.3,23.3h-69.9v116.5h372.9V663.2h-69.9c-12.9,0-23.3-10.4-23.3-23.3V360.2
		C593.2,347.3,603.7,336.9,616.5,336.9"/>
</g>
</svg>
