<svg version="1.1" id="Layer_1" xmlns="http://www.w3.org/2000/svg" xmlns:xlink="http://www.w3.org/1999/xlink" x="0px" y="0px"
	 width="100%" viewBox="0 0 1291 656" enable-background="new 0 0 1291 656" xml:space="preserve">
<path fill="#FFFFFF" opacity="1.000000" stroke="none" 
	d="
M1178.000000,657.000000 
	C785.383606,657.000000 393.267181,657.000000 1.075384,657.000000 
	C1.075384,438.411621 1.075384,219.823242 1.075384,1.117418 
	C431.333313,1.117418 861.666626,1.117418 1291.992188,1.117418 
	C1291.992188,219.733109 1291.992188,438.366547 1291.988281,657.000000 
	C1254.156250,657.000000 1216.328125,657.000000 1178.000000,657.000000 
M287.018585,334.014038 
	C287.018585,334.014038 287.023163,334.095703 287.578125,333.998016 
	C287.736481,333.667419 287.894836,333.336823 287.995941,333.003632 
	C287.995941,333.003632 288.018860,333.056122 288.518860,332.698303 
	C288.726990,332.136810 288.935120,331.575348 289.039581,331.019196 
	C289.039581,331.019196 289.058319,331.121307 289.590637,330.843140 
	C290.068573,330.232483 290.546539,329.621826 291.656189,328.673187 
	C292.636688,326.680939 293.286011,325.972931 294.131622,328.861145 
	C295.235901,332.632812 296.746429,336.285553 298.176605,340.706848 
	C304.516388,358.003113 324.447388,372.127869 342.700409,372.077606 
	C344.181335,372.073486 345.658966,370.888458 347.138092,370.252136 
	C345.913147,369.207550 344.839996,367.569275 343.439514,367.211121 
	C330.817352,363.983093 321.937408,356.568115 317.012726,344.448273 
	C316.603241,343.440460 315.727966,342.621918 315.107635,341.337219 
	C315.107635,341.337219 314.931122,341.000458 315.089478,340.241333 
	C315.044037,339.478363 314.998566,338.715363 315.056152,337.027374 
	C315.072052,333.373810 314.790009,329.687317 315.189240,326.076111 
	C315.573761,322.598022 314.241180,321.678650 311.064636,321.765137 
	C305.658112,321.912415 300.244690,321.805695 294.508820,321.805695 
	C295.383270,318.052795 296.071045,314.816345 296.900818,311.616730 
	C297.809998,308.111084 296.607758,305.840363 293.241760,304.555176 
	C280.749786,299.785492 268.316284,294.854736 255.730499,290.348572 
	C254.207581,289.803375 251.890686,291.475677 249.941788,292.120239 
	C251.005615,293.879791 251.654343,296.392029 253.214111,297.252197 
	C257.262695,299.484894 261.639496,301.199890 266.023987,302.721924 
	C269.629456,303.973480 271.898529,306.413940 271.771393,309.919586 
	C271.509613,317.137482 270.569489,324.330750 269.406860,332.107269 
	C269.196442,333.060333 268.986023,334.013428 268.905090,334.919434 
	C268.905090,334.919434 268.826050,334.806549 268.178925,335.034058 
	C260.125824,348.918060 248.564087,357.562897 232.232773,359.021332 
	C229.760651,359.242126 226.531097,358.832764 226.695023,362.350128 
	C226.873062,366.170624 230.231934,365.457947 232.862122,365.372345 
	C243.273590,365.033508 253.218857,362.605560 262.273224,357.534790 
	C271.347839,352.452637 279.610748,346.218353 285.087769,337.026367 
	C285.087769,337.026367 285.033752,337.126282 285.556305,336.977570 
	C285.674744,336.655701 285.793182,336.333801 286.113739,335.695984 
	C286.113739,335.695984 286.057800,335.325165 286.591339,335.034241 
	C286.761017,334.695007 286.930664,334.355804 287.018585,334.014038 
M673.082336,360.114136 
	C672.929199,359.953888 672.776123,359.793671 671.955688,359.391266 
	C669.549500,359.391266 667.143372,359.391266 665.653137,359.391266 
	C665.425415,362.411011 665.590149,366.597290 665.025330,366.698181 
	C660.875732,367.439148 663.466492,363.369293 662.180359,362.069977 
	C660.853027,360.729034 658.638123,359.145081 657.123169,359.415192 
	C655.486938,359.706940 653.480408,361.814667 652.997253,363.516815 
	C652.568665,365.026642 653.881897,368.568115 654.641418,368.631470 
	C660.056396,369.082916 665.526611,368.872284 670.399109,368.872284 
	C669.884399,366.559113 669.126892,364.844513 669.314148,363.240204 
	C669.399963,362.505066 671.343445,361.986786 672.892029,361.119507 
	C673.179932,363.136902 673.197876,364.301483 673.525818,365.371063 
	C674.628418,368.966400 677.430054,369.686798 680.646851,369.061127 
	C684.121521,368.385376 685.200684,365.721985 684.461243,362.669647 
	C683.621399,359.202393 680.695862,358.826416 677.682556,359.363190 
	C676.247986,359.618744 674.873596,360.212372 673.082336,360.114136 
M818.657227,366.640106 
	C825.538086,371.013733 828.046204,370.146057 831.818115,361.215088 
	C832.097595,363.517975 831.906067,365.075684 832.523071,366.182861 
	C833.203735,367.404297 834.607544,369.045349 835.728516,369.070496 
	C845.927917,369.299316 856.134460,369.226746 866.338867,369.208954 
	C867.770203,369.206451 869.201233,369.023987 870.658875,368.922974 
	C870.243713,367.098083 869.621277,365.695160 869.665833,364.313660 
	C869.813477,359.726471 867.590271,358.391815 863.407776,359.246216 
	C861.043884,359.729095 858.250061,361.079102 856.348633,360.310272 
	C850.037292,357.758270 846.254333,359.392853 844.457275,367.265961 
	C843.615784,362.483734 843.025208,359.127197 842.335144,355.205292 
	C839.590088,360.530518 839.054382,360.641418 834.172729,357.755005 
	C832.085815,358.607635 830.089966,360.239136 828.370483,359.986786 
	C820.160400,358.781799 819.525818,359.045868 817.311829,366.705780 
	C815.935791,364.260132 818.397400,359.584991 813.398193,359.320892 
	C808.968750,359.086853 804.509644,359.437988 800.063171,359.497681 
	C795.379028,359.560577 790.645203,360.019501 786.024353,359.497589 
	C781.761230,359.016022 777.654724,357.281342 773.410461,356.449402 
	C770.777710,355.933319 768.016785,356.071075 766.330261,355.973938 
	C766.330261,360.593781 766.330261,364.412048 766.330261,368.563843 
	C770.681396,366.063080 774.571228,363.827454 779.181030,361.178009 
	C779.181030,364.479980 779.181030,366.689850 779.181030,368.991516 
	C780.924133,368.991516 782.523621,368.991516 783.484741,368.991516 
	C783.184082,367.155090 782.539062,365.479126 782.798035,363.956970 
	C782.956177,363.027618 784.504639,362.334808 784.317749,362.496460 
	C787.324951,365.213898 789.237305,368.276398 791.790588,368.966156 
	C796.806641,370.321320 798.175293,365.881256 800.183167,362.104248 
	C800.390259,364.314423 800.597351,366.524567 800.804443,368.734741 
	C802.313538,367.888611 802.641296,366.808685 803.134583,365.810577 
	C803.906982,364.247620 804.791321,362.739960 805.628296,361.208923 
	C806.023376,363.062714 806.484802,364.906372 806.770996,366.776825 
	C806.851013,367.300201 806.414856,367.902527 806.029053,368.997955 
	C809.579407,368.997955 812.713989,369.125885 815.824158,368.906708 
	C816.587646,368.852966 817.271240,367.665741 818.657227,366.640106 
M529.131287,367.170319 
	C529.250732,367.295685 529.370117,367.421021 529.725952,368.060669 
	C533.505920,368.060669 537.285889,368.060669 540.996643,368.060669 
	C542.182800,359.964905 541.521423,359.308441 533.977966,359.458557 
	C527.486206,359.587769 520.988586,359.409363 514.493591,359.405212 
	C512.024780,359.403625 509.181458,358.770630 507.194794,359.778107 
	C505.300781,360.738586 504.299866,363.460358 502.683228,365.719635 
	C501.469086,363.224609 500.209747,360.564545 498.886688,357.936584 
	C497.316467,354.817657 495.627686,354.858948 493.975555,357.871948 
	C492.031067,361.418152 490.131104,364.988800 488.082123,368.789429 
	C489.846832,368.789429 491.866638,368.789429 494.263000,368.789429 
	C493.771881,367.430786 493.428833,366.481781 492.958221,365.179932 
	C495.150513,365.179932 496.919495,365.179932 499.020020,365.179932 
	C498.920502,366.477783 498.831848,367.633972 498.804962,367.984589 
	C501.727539,369.419342 504.141754,370.551300 506.507294,371.777161 
	C511.056305,374.134583 515.369873,371.725983 515.616211,366.669220 
	C515.689514,365.163574 515.841553,363.661774 516.046387,361.005432 
	C520.634277,370.401672 522.796143,371.215088 529.131287,367.170319 
M887.158508,360.479248 
	C887.738770,360.057739 888.857178,359.326477 888.819336,359.260681 
	C888.127075,358.058014 887.404175,356.070831 886.474731,355.954712 
	C883.484863,355.581268 879.499390,354.566437 878.428345,358.645203 
	C877.613831,361.747070 878.266724,365.234253 878.266724,369.615173 
	C882.171875,368.854645 885.429626,368.186157 888.703308,367.608276 
	C889.454346,367.475708 890.468262,367.358826 891.008240,367.737701 
	C895.146118,370.641541 898.480469,369.182739 900.251160,367.292542 
	C904.410706,367.858551 907.363037,368.280182 910.321533,368.652557 
	C911.429321,368.791931 912.551453,368.880463 913.667297,368.883209 
	C921.514038,368.902588 929.360718,368.893494 936.851379,368.893494 
	C936.637634,365.757233 936.376770,363.175812 936.307922,360.589264 
	C936.230225,357.673126 936.479004,354.590729 931.858398,356.278320 
	C934.327820,361.576782 933.898010,365.041290 931.797607,365.959473 
	C929.604492,363.447296 928.001892,359.833374 925.656128,359.260040 
	C918.795776,357.583160 921.474670,365.430817 917.746765,368.597321 
	C917.499268,363.887604 917.292175,359.945282 917.085022,356.002991 
	C916.447876,355.664673 915.810669,355.326385 915.173462,354.988068 
	C915.491455,360.564026 912.240601,359.216705 909.615723,359.516876 
	C906.794189,359.839447 904.036804,360.723419 900.508484,361.532898 
	C897.333374,357.652313 893.345642,357.777405 888.952881,363.331696 
	C887.845276,362.745087 886.694458,362.135559 886.005005,361.047485 
	C886.167419,360.896790 886.329895,360.746094 887.158508,360.479248 
M740.038940,358.033936 
	C739.889160,357.889709 739.739380,357.745483 739.387634,357.135193 
	C738.466125,356.902985 737.544617,356.670776 736.623108,356.438568 
	C736.509460,358.554352 736.534485,360.690033 736.234131,362.778992 
	C736.028931,364.206726 735.369751,365.569183 734.913513,366.960785 
	C734.269226,365.855652 733.707092,364.691101 732.961182,363.659454 
	C731.859009,362.135010 730.679626,359.485474 729.440430,359.431244 
	C720.907898,359.057739 712.351196,359.234802 703.494690,359.234802 
	C703.252075,358.459930 702.835999,357.131104 702.525574,356.139587 
	C698.356873,356.139587 694.637573,356.139587 691.759216,356.139587 
	C691.759216,360.520355 691.759216,364.497711 691.759216,369.160522 
	C693.372437,369.083038 695.743591,368.969177 698.445923,368.839386 
	C697.145264,367.036102 696.352844,365.937408 695.560364,364.838715 
	C695.815308,364.602997 696.070190,364.367279 696.325134,364.131561 
	C697.407410,364.490967 698.489685,364.850372 699.558350,365.205261 
	C700.042908,363.527557 700.415710,362.236694 700.788574,360.945862 
	C701.233765,360.894928 701.679016,360.844025 702.124207,360.793091 
	C702.467102,362.123566 703.270691,363.532196 703.060913,364.768890 
	C702.558289,367.730804 703.941956,368.896118 706.497864,368.965240 
	C711.117126,369.090271 715.742249,369.000641 720.567749,369.000641 
	C720.824951,367.439667 721.031250,366.188171 721.146484,365.488586 
	C722.133789,366.595459 723.161133,368.784180 724.275757,368.829559 
	C731.808472,369.136383 739.359619,368.989624 746.545654,368.989624 
	C746.227966,365.998413 745.976868,363.634033 745.633728,360.403168 
	C751.423889,364.922638 752.207153,368.100220 748.852112,371.970062 
	C757.120361,371.625427 755.290100,363.297516 759.233337,359.636108 
	C754.894836,359.636108 750.556335,359.636108 747.122009,359.636108 
	C745.531921,358.018402 744.539917,356.652008 743.202148,355.904144 
	C742.875366,355.721466 741.415039,357.566498 740.038940,358.033936 
M953.064758,360.715424 
	C953.811707,359.497650 954.558594,358.279846 955.513367,356.723236 
	C945.403503,355.065582 945.403442,355.065582 944.689514,362.979736 
	C944.136963,369.103790 946.833984,370.916107 952.873840,368.634827 
	C954.279480,368.103912 955.901550,367.793701 957.388794,367.895630 
	C962.286011,368.231354 967.167053,368.802826 971.868042,369.265411 
	C972.175354,368.148041 972.237061,367.820038 972.354431,367.513306 
	C973.106384,365.547546 973.870544,363.586456 974.630676,361.623810 
	C976.193848,363.022400 977.790100,364.386230 979.308594,365.831787 
	C980.329651,366.803711 981.240723,367.891205 982.200989,368.927002 
	C983.167908,367.915741 984.204773,366.960388 985.074890,365.871765 
	C985.581543,365.237915 985.657349,364.220642 986.219177,363.678894 
	C987.072266,362.856354 988.179382,362.297211 989.178528,361.626160 
	C989.610291,362.776581 990.335449,363.914764 990.383972,365.081085 
	C990.425171,366.073181 989.686768,367.097687 988.961060,368.960510 
	C991.773865,368.546936 994.064087,368.037476 996.375122,367.912628 
	C999.497864,367.743896 1002.636597,367.870697 1005.768433,367.870697 
	C1006.579407,367.117615 1007.223389,368.000122 1007.894897,368.021637 
	C1010.511292,368.105347 1013.437683,368.558289 1015.620178,367.534180 
	C1016.586853,367.080597 1016.983276,362.654114 1015.962402,361.437012 
	C1014.750244,359.991821 1011.759827,359.882629 1009.487915,359.545441 
	C1008.297668,359.368805 1007.000122,360.115479 1005.743835,360.145569 
	C1001.984558,360.235626 998.221741,360.177948 993.503784,360.177948 
	C994.081848,360.946716 993.649292,360.597687 993.516785,360.158173 
	C992.706787,357.471344 992.741028,357.482513 990.436401,358.959625 
	C990.040405,359.213470 989.502441,359.341309 989.024292,359.357422 
	C981.134766,359.623230 973.166992,360.615967 965.384033,359.816559 
	C960.893555,359.355347 957.663452,359.190796 955.346313,363.486969 
	C953.895752,362.744080 952.725281,362.144653 951.944336,361.103394 
	C952.082336,360.963684 952.220398,360.823975 953.064758,360.715424 
M299.104370,285.578522 
	C297.791779,275.097809 288.926239,269.752808 280.143341,274.146973 
	C274.405548,277.017670 271.734344,283.310791 273.524445,289.740631 
	C275.103241,295.411377 280.723511,299.358582 286.733429,299.017365 
	C293.603424,298.627350 298.078430,294.064667 299.104370,285.578522 
M464.427521,369.249664 
	C468.497559,369.237000 472.613281,369.566895 476.613861,369.033386 
	C478.093750,368.835968 479.781097,366.824493 480.495361,365.243530 
	C481.154083,363.785522 480.635529,361.795654 480.635529,359.247009 
	C477.984100,359.539642 474.972900,359.075409 473.068634,360.313629 
	C471.282135,361.475159 470.666382,364.437286 469.061279,367.516846 
	C468.754913,363.551453 468.514404,360.438354 468.217499,356.594879 
	C465.427490,359.746399 463.001678,360.386749 461.261719,356.051392 
	C461.099121,355.646210 459.051819,355.997406 458.286011,355.997406 
	C458.667938,358.783783 458.964233,360.945618 459.257385,363.084290 
	C454.031189,360.286102 449.509338,357.865082 444.992371,355.446655 
	C445.302155,359.641754 445.557434,363.099152 445.819183,366.644012 
	C441.833008,366.644012 438.682159,366.644012 434.808411,366.644012 
	C437.278412,360.934418 433.399200,358.951355 429.627045,357.613586 
	C425.994080,356.325195 422.017578,356.005432 418.192017,355.260101 
	C418.118652,355.727722 418.045258,356.195374 417.971893,356.662994 
	C422.429474,359.879913 422.400360,364.552887 417.502594,368.934998 
	C420.236053,368.934998 422.580353,368.934998 425.069305,368.934998 
	C425.069305,367.242462 425.069305,365.797516 425.069305,364.549835 
	C427.302826,363.634735 429.389282,362.779846 431.673309,361.844055 
	C432.717407,364.886261 431.335052,369.400360 436.908417,369.267822 
	C445.780029,369.056915 454.660950,369.236481 464.427521,369.249664 
M368.318298,356.103882 
	C363.093658,356.103882 357.869049,356.103882 353.039856,356.103882 
	C353.514832,358.594604 354.127472,360.584442 354.234283,362.601105 
	C354.531158,368.206848 358.453888,370.742767 363.775299,368.601135 
	C364.828491,368.177277 365.926025,367.313690 366.929169,367.411438 
	C371.065857,367.814606 375.171600,368.911591 379.293732,368.936951 
	C381.530090,368.950775 383.776550,367.322754 386.222870,366.354401 
	C387.874268,369.253143 402.773590,370.979034 410.707611,368.490875 
	C410.098450,366.872345 408.652527,365.012146 409.063660,363.763458 
	C410.479156,359.464844 408.009338,359.196350 405.043915,359.231049 
	C402.929993,359.255737 400.818726,359.508881 398.664856,359.663025 
	C399.180634,361.565216 399.813965,363.185577 399.977509,364.852051 
	C400.044006,365.529053 399.088409,366.306396 398.597870,367.038055 
	C397.954376,366.463867 396.941528,366.003387 396.724426,365.297943 
	C394.528687,358.163849 392.489288,357.364594 387.211700,360.635742 
	C383.811890,360.053528 381.364136,359.216675 378.956665,359.319885 
	C375.341644,359.474915 374.309326,361.683472 375.532684,365.103607 
	C375.641571,365.407928 374.234467,366.755829 373.666260,366.674683 
	C372.949402,366.572357 371.835541,365.507355 371.825745,364.843872 
	C371.783264,361.966278 372.080414,359.083649 372.271484,355.914398 
	C371.318573,355.963226 370.198730,356.020599 368.318298,356.103882 
M635.594116,360.530182 
	C631.130737,359.095764 626.667358,357.661316 622.751343,356.402802 
	C622.573547,358.941162 622.408203,361.301727 622.242920,363.662323 
	C620.523560,362.049744 620.123657,360.244507 619.265747,358.692352 
	C618.636658,357.554016 617.406738,356.747711 616.444580,355.793427 
	C615.634155,356.700928 614.633240,357.503082 614.059265,358.541321 
	C613.253540,359.998779 612.765137,361.631744 612.141052,363.189636 
	C611.685425,363.089447 611.229797,362.989258 610.774170,362.889038 
	C610.774170,360.669952 610.774170,358.450836 610.774170,355.998077 
	C609.048889,356.085815 607.341187,356.172668 605.906738,356.245605 
	C607.187866,360.107422 608.215698,363.567596 609.529907,366.915344 
	C609.862854,367.763489 611.040955,368.589691 611.961243,368.773865 
	C612.463074,368.874298 613.494812,367.719666 613.840088,366.934387 
	C614.692505,364.995636 615.286743,362.943390 616.414551,359.701447 
	C617.806030,363.343903 618.055664,366.570160 619.791992,368.039398 
	C624.230042,371.794586 622.875000,365.266937 625.536987,364.467468 
	C627.951721,364.720245 632.174255,363.907562 633.597107,365.538055 
	C638.591003,371.260590 644.281250,368.604370 650.417297,369.009705 
	C647.524780,364.853790 648.577087,359.103058 653.154846,355.746704 
	C650.320862,355.972321 648.415344,355.651733 647.045349,356.362885 
	C645.610962,357.107422 644.690979,358.843079 644.192566,359.410126 
	C642.075867,357.833435 640.392456,356.579437 638.708984,355.325439 
	C640.760986,362.155212 640.112976,366.419067 636.868530,366.924896 
	C636.607544,364.963928 636.348267,363.016327 635.594116,360.530182 
M306.262146,319.885834 
	C307.568359,320.015503 308.883514,320.314056 310.179260,320.245605 
	C315.880096,319.944427 319.545624,315.764160 319.198090,310.091400 
	C318.863831,304.635834 314.822357,301.290619 309.065796,301.717163 
	C305.019592,302.016937 302.110107,303.980042 301.029266,307.933441 
	C299.699493,312.797516 301.198853,316.721802 306.262146,319.885834 
M579.933533,360.130432 
	C579.784668,358.929993 579.635803,357.729553 579.387451,355.726807 
	C576.061951,353.904877 574.940369,358.110748 573.640442,359.320343 
	C573.640442,362.923889 573.640442,365.657898 573.640442,368.428467 
	C581.523132,368.428467 589.956238,368.428467 598.771973,368.428467 
	C594.969543,364.797089 597.174866,362.340820 600.600098,359.784515 
	C596.806641,359.603149 592.915344,361.099335 590.060608,359.971527 
	C586.405090,358.527344 583.701172,359.352448 579.933533,360.130432 
M551.291382,366.155670 
	C550.563354,366.958191 549.835327,367.760712 548.370544,369.375305 
	C547.647278,366.816986 546.216248,364.612885 546.801147,363.322449 
	C549.149536,358.141052 552.729370,366.053772 555.309814,362.468323 
	C557.570007,365.618317 560.044800,368.377228 554.876038,371.993103 
	C564.458130,371.922058 562.313110,363.413422 566.414429,359.884766 
	C560.052368,359.262299 553.977722,358.951508 547.974915,359.470978 
	C546.384094,359.608704 543.946167,362.234192 543.846191,363.838806 
	C543.748108,365.414917 545.837830,367.978394 547.506958,368.559967 
	C548.999634,369.080017 551.227966,367.488892 553.131653,366.829254 
	C552.695374,366.608154 552.259033,366.387054 551.291382,366.155670 
z"/>
<path fill="#DC1EC1" opacity="1.000000" stroke="none" 
	d="
M286.057800,335.325165 
	C286.057800,335.325165 286.113739,335.695984 285.799744,335.979248 
	C285.238098,336.499695 285.087433,336.787628 285.033752,337.126282 
	C285.033752,337.126282 285.087769,337.026367 284.769653,337.037903 
	C283.503174,337.664337 282.266815,338.072479 281.652893,338.927490 
	C277.533264,344.665039 272.267792,344.456085 266.761688,342.370178 
	C267.486786,339.713501 268.156433,337.260010 268.826050,334.806549 
	C268.826050,334.806549 268.905090,334.919434 269.173157,334.741882 
	C269.596954,333.554260 269.752716,332.544189 269.908508,331.534149 
	C270.569489,324.330750 271.509613,317.137482 271.771393,309.919586 
	C271.898529,306.413940 269.629456,303.973480 266.023987,302.721924 
	C261.639496,301.199890 257.262695,299.484894 253.214111,297.252197 
	C251.654343,296.392029 251.005615,293.879791 249.941788,292.120239 
	C251.890686,291.475677 254.207581,289.803375 255.730499,290.348572 
	C268.316284,294.854736 280.749786,299.785492 293.241760,304.555176 
	C296.607758,305.840363 297.809998,308.111084 296.900818,311.616730 
	C296.071045,314.816345 295.383270,318.052795 294.508820,321.805695 
	C300.244690,321.805695 305.658112,321.912415 311.064636,321.765137 
	C314.241180,321.678650 315.573761,322.598022 315.189240,326.076111 
	C314.790009,329.687317 315.072052,333.373810 314.756897,337.681580 
	C314.615509,339.223999 314.773315,340.112244 314.931122,341.000458 
	C314.931122,341.000458 315.107635,341.337219 315.042358,341.913422 
	C313.198364,344.489807 310.838623,348.442261 309.751434,348.118713 
	C306.670258,347.201782 304.098969,344.550323 301.349213,342.551270 
	C300.230560,341.738098 299.169434,340.845764 298.082153,339.989441 
	C296.746429,336.285553 295.235901,332.632812 294.131622,328.861145 
	C293.286011,325.972931 292.636688,326.680939 291.008026,328.881836 
	C289.925995,329.767426 289.492157,330.444366 289.058319,331.121307 
	C289.058319,331.121307 289.039581,331.019196 288.812195,331.162964 
	C288.396179,331.889832 288.207520,332.472992 288.018860,333.056122 
	C288.018860,333.056122 287.995941,333.003632 287.788147,333.117340 
	C287.394623,333.519257 287.208893,333.807465 287.023163,334.095703 
	C287.023163,334.095703 287.018585,334.014038 286.792908,334.145355 
	C286.397400,334.626160 286.227600,334.975677 286.057800,335.325165 
z"/>
<path fill="#8F8F91" opacity="1.000000" stroke="none" 
	d="
M951.554749,361.545227 
	C952.725281,362.144653 953.895752,362.744080 955.346313,363.486969 
	C957.663452,359.190796 960.893555,359.355347 965.384033,359.816559 
	C973.166992,360.615967 981.134766,359.623230 989.024292,359.357422 
	C989.502441,359.341309 990.040405,359.213470 990.436401,358.959625 
	C992.741028,357.482513 992.706787,357.471344 993.516785,360.158173 
	C993.649292,360.597687 994.081848,360.946716 993.503784,360.177948 
	C998.221741,360.177948 1001.984558,360.235626 1005.743835,360.145569 
	C1007.000122,360.115479 1008.297668,359.368805 1009.487915,359.545441 
	C1011.759827,359.882629 1014.750244,359.991821 1015.962402,361.437012 
	C1016.983276,362.654114 1016.586853,367.080597 1015.620178,367.534180 
	C1013.437683,368.558289 1010.511292,368.105347 1007.894897,368.021637 
	C1007.223389,368.000122 1006.579407,367.117615 1005.768433,367.870697 
	C1002.636597,367.870697 999.497864,367.743896 996.375122,367.912628 
	C994.064087,368.037476 991.773865,368.546936 988.961060,368.960510 
	C989.686768,367.097687 990.425171,366.073181 990.383972,365.081085 
	C990.335449,363.914764 989.610291,362.776581 989.178528,361.626160 
	C988.179382,362.297211 987.072266,362.856354 986.219177,363.678894 
	C985.657349,364.220642 985.581543,365.237915 985.074890,365.871765 
	C984.204773,366.960388 983.167908,367.915741 982.200989,368.927002 
	C981.240723,367.891205 980.329651,366.803711 979.308594,365.831787 
	C977.790100,364.386230 976.193848,363.022400 974.630676,361.623840 
	C973.870544,363.586456 973.106384,365.547546 972.354431,367.513306 
	C972.237061,367.820038 972.175354,368.148041 971.868042,369.265411 
	C967.167053,368.802826 962.286011,368.231354 957.388794,367.895630 
	C955.901550,367.793701 954.279480,368.103912 952.873840,368.634827 
	C946.833984,370.916107 944.136963,369.103790 944.689514,362.979736 
	C945.403442,355.065582 945.403503,355.065582 955.513367,356.723236 
	C954.558594,358.279846 953.811707,359.497650 952.602783,360.342865 
	C950.846252,359.268341 949.551697,358.566406 948.257080,357.864441 
	C947.982178,358.513336 947.707275,359.162262 947.432373,359.811188 
	C948.806458,360.389221 950.180603,360.967224 951.554749,361.545227 
M1003.197388,362.966156 
	C1001.647644,362.774048 1000.097900,362.581940 998.548157,362.389832 
	C998.492432,363.594788 998.052368,364.987396 998.516541,365.938629 
	C998.824585,366.569702 1000.817017,367.122406 1001.367310,366.734436 
	C1002.459778,365.964081 1003.076721,364.519409 1003.197388,362.966156 
M951.301880,367.485077 
	C950.749268,366.252960 950.196594,365.020844 949.643982,363.788696 
	C948.928101,364.225830 948.212280,364.662994 947.496460,365.100189 
	C948.531372,366.138428 949.566345,367.176666 951.301880,367.485077 
M1012.369202,364.924042 
	C1011.371887,365.057800 1010.374573,365.191589 1009.377258,365.325378 
	C1009.634766,365.840820 1009.892334,366.356293 1010.149902,366.871735 
	C1011.149292,366.262207 1012.148621,365.652679 1012.369202,364.924042 
M960.549377,366.868927 
	C961.660461,366.633575 962.771606,366.398224 963.882690,366.162872 
	C963.718445,365.649689 963.554199,365.136505 963.389954,364.623322 
	C962.233948,365.187988 961.078003,365.752625 960.549377,366.868927 
M967.803650,362.321045 
	C967.537903,363.895477 967.272095,365.469940 967.006348,367.044373 
	C967.702148,367.105103 968.397949,367.165802 969.093750,367.226532 
	C968.953735,365.534576 968.813721,363.842621 967.803650,362.321045 
M983.047546,363.951721 
	C982.891174,363.223541 982.734741,362.495361 982.578369,361.767151 
	C982.152710,361.895020 981.727112,362.022919 981.301453,362.150818 
	C981.740051,362.979126 982.178711,363.807404 983.047546,363.951721 
M945.515259,364.868042 
	C945.590454,364.670074 945.665649,364.472107 945.740906,364.274170 
	C945.550171,364.329529 945.359497,364.384857 945.515259,364.868042 
z"/>
<path fill="#8F8F91" opacity="1.000000" stroke="none" 
	d="
M740.475891,358.479248 
	C741.415039,357.566498 742.875366,355.721466 743.202148,355.904144 
	C744.539917,356.652008 745.531921,358.018402 747.122009,359.636108 
	C750.556335,359.636108 754.894836,359.636108 759.233337,359.636108 
	C755.290100,363.297516 757.120361,371.625427 748.852112,371.970062 
	C752.207153,368.100220 751.423889,364.922638 745.633728,360.403168 
	C745.976868,363.634033 746.227966,365.998413 746.545654,368.989624 
	C739.359619,368.989624 731.808472,369.136383 724.275757,368.829559 
	C723.161133,368.784180 722.133789,366.595459 721.146484,365.488586 
	C721.031250,366.188171 720.824951,367.439667 720.567749,369.000641 
	C715.742249,369.000641 711.117126,369.090271 706.497864,368.965240 
	C703.941956,368.896118 702.558289,367.730804 703.060913,364.768890 
	C703.270691,363.532196 702.467102,362.123566 702.124207,360.793091 
	C701.679016,360.844025 701.233765,360.894928 700.788574,360.945862 
	C700.415710,362.236694 700.042908,363.527557 699.558350,365.205261 
	C698.489685,364.850372 697.407410,364.490967 696.325134,364.131561 
	C696.070190,364.367279 695.815308,364.602997 695.560364,364.838715 
	C696.352844,365.937408 697.145264,367.036102 698.445923,368.839386 
	C695.743591,368.969177 693.372437,369.083038 691.759216,369.160522 
	C691.759216,364.497711 691.759216,360.520355 691.759216,356.139587 
	C694.637573,356.139587 698.356873,356.139587 702.525574,356.139587 
	C702.835999,357.131104 703.252075,358.459930 703.494690,359.234802 
	C712.351196,359.234802 720.907898,359.057739 729.440430,359.431244 
	C730.679626,359.485474 731.859009,362.135010 732.961182,363.659454 
	C733.707092,364.691101 734.269226,365.855652 734.913513,366.960815 
	C735.369751,365.569183 736.028931,364.206726 736.234131,362.778992 
	C736.534485,360.690033 736.509460,358.554352 736.623108,356.438538 
	C737.544617,356.670776 738.466125,356.902985 739.218750,357.522461 
	C739.165161,358.431641 739.280396,358.953552 739.399780,359.889099 
	C739.435303,361.935089 739.236267,363.622101 739.604492,365.174469 
	C739.765808,365.854340 741.085938,366.259277 741.879761,366.789062 
	C742.263611,365.146851 743.078064,363.453461 742.890869,361.879120 
	C742.749084,360.686462 741.330200,359.645630 740.443115,358.523224 
	C740.406616,358.509186 740.475891,358.479248 740.475891,358.479248 
M726.595764,362.256317 
	C727.021912,363.907959 727.448059,365.559601 727.874207,367.211273 
	C728.643372,366.396271 729.957031,365.648438 730.067627,364.752197 
	C730.294250,362.915222 730.600891,360.287201 726.595764,362.256317 
M713.511658,366.201630 
	C714.640808,365.802765 715.769958,365.403900 716.899109,365.005005 
	C716.370789,363.921844 715.842407,362.838684 715.314087,361.755493 
	C714.641541,362.939514 713.968994,364.123535 713.511658,366.201630 
z"/>
<path fill="#8F8F91" opacity="1.000000" stroke="none" 
	d="
M885.543640,361.526062 
	C886.694458,362.135559 887.845276,362.745087 888.952881,363.331696 
	C893.345642,357.777405 897.333374,357.652313 900.508484,361.532898 
	C904.036804,360.723419 906.794189,359.839447 909.615723,359.516876 
	C912.240601,359.216705 915.491455,360.564026 915.173462,354.988068 
	C915.810669,355.326385 916.447876,355.664673 917.085022,356.002991 
	C917.292175,359.945282 917.499268,363.887604 917.746765,368.597321 
	C921.474670,365.430817 918.795776,357.583160 925.656128,359.260040 
	C928.001892,359.833374 929.604492,363.447296 931.797607,365.959473 
	C933.898010,365.041290 934.327820,361.576782 931.858398,356.278320 
	C936.479004,354.590729 936.230225,357.673126 936.307922,360.589264 
	C936.376770,363.175812 936.637634,365.757233 936.851379,368.893494 
	C929.360718,368.893494 921.514038,368.902588 913.667297,368.883209 
	C912.551453,368.880463 911.429321,368.791931 910.321533,368.652557 
	C907.363037,368.280182 904.410706,367.858551 900.251160,367.292542 
	C898.480469,369.182739 895.146118,370.641541 891.008240,367.737701 
	C890.468262,367.358826 889.454346,367.475708 888.703308,367.608276 
	C885.429626,368.186157 882.171875,368.854645 878.266724,369.615173 
	C878.266724,365.234253 877.613831,361.747070 878.428345,358.645203 
	C879.499390,354.566437 883.484863,355.581268 886.474731,355.954712 
	C887.404175,356.070831 888.127075,358.058014 888.819336,359.260681 
	C888.857178,359.326477 887.738770,360.057739 886.781372,360.167603 
	C884.826904,359.250153 883.249573,358.644348 881.672180,358.038513 
	C881.473694,358.685059 881.275146,359.331573 881.076660,359.978088 
	C882.565613,360.494080 884.054626,361.010071 885.543640,361.526062 
M894.820374,361.110535 
	C894.187500,362.759979 893.554688,364.409454 892.921875,366.058929 
	C894.503052,366.022491 896.914124,366.609436 897.502075,365.826813 
	C898.972412,363.869751 898.462341,361.780090 894.820374,361.110535 
M909.618347,362.377808 
	C908.114807,362.636993 906.611267,362.896179 905.107788,363.155365 
	C905.396729,364.197571 905.755127,366.155853 905.963928,366.140015 
	C908.003296,365.985474 910.017700,365.501343 913.268738,364.873596 
	C911.281067,363.637512 910.728577,363.293915 909.618347,362.377808 
M885.587219,365.357880 
	C884.280273,364.622284 882.973328,363.886658 881.666382,363.151031 
	C881.378967,363.706451 881.091553,364.261841 880.804077,364.817230 
	C881.598145,366.639282 882.655762,367.981171 885.587219,365.357880 
M913.422729,367.927460 
	C913.605408,367.439301 913.788086,366.951111 913.970764,366.462952 
	C913.727051,366.388367 913.303284,366.202057 913.268982,366.257416 
	C913.041504,366.623840 912.897705,367.042114 913.422729,367.927460 
M913.443848,364.976227 
	C913.518982,364.737488 913.594116,364.498749 913.669250,364.260010 
	C913.438965,364.340942 913.208679,364.421875 913.443848,364.976227 
M913.106323,362.491119 
	C913.315002,362.571045 913.523743,362.650970 913.732422,362.730927 
	C913.667480,362.504456 913.602539,362.277954 913.106323,362.491119 
z"/>
<path fill="#DC1EC1" opacity="1.000000" stroke="none" 
	d="
M299.102203,285.993469 
	C298.078430,294.064667 293.603424,298.627350 286.733429,299.017365 
	C280.723511,299.358582 275.103241,295.411377 273.524445,289.740631 
	C271.734344,283.310791 274.405548,277.017670 280.143341,274.146973 
	C288.926239,269.752808 297.791779,275.097809 299.102203,285.993469 
z"/>
<path fill="#8F8F91" opacity="1.000000" stroke="none" 
	d="
M463.982727,369.250275 
	C454.660950,369.236481 445.780029,369.056915 436.908417,369.267822 
	C431.335052,369.400360 432.717407,364.886261 431.673309,361.844055 
	C429.389282,362.779846 427.302826,363.634735 425.069305,364.549835 
	C425.069305,365.797516 425.069305,367.242462 425.069305,368.934998 
	C422.580353,368.934998 420.236053,368.934998 417.502594,368.934998 
	C422.400360,364.552887 422.429474,359.879913 417.971893,356.662994 
	C418.045258,356.195374 418.118652,355.727722 418.192017,355.260101 
	C422.017578,356.005432 425.994080,356.325195 429.627045,357.613586 
	C433.399200,358.951355 437.278412,360.934418 434.808411,366.644012 
	C438.682159,366.644012 441.833008,366.644012 445.819183,366.644012 
	C445.557434,363.099152 445.302155,359.641754 444.992371,355.446655 
	C449.509338,357.865082 454.031189,360.286102 459.257385,363.084290 
	C458.964233,360.945618 458.667938,358.783783 458.286011,355.997406 
	C459.051819,355.997406 461.099121,355.646210 461.261719,356.051392 
	C463.001678,360.386749 465.427490,359.746399 468.217499,356.594879 
	C468.514404,360.438354 468.754913,363.551453 469.061279,367.516846 
	C470.666382,364.437286 471.282135,361.475159 473.068634,360.313629 
	C474.972900,359.075409 477.984100,359.539642 480.635529,359.247009 
	C480.635529,361.795654 481.154083,363.785522 480.495361,365.243530 
	C479.781097,366.824493 478.093750,368.835968 476.613861,369.033386 
	C472.613281,369.566895 468.497559,369.237000 463.982727,369.250275 
M454.179626,363.674103 
	C453.021027,362.856842 451.938995,361.658081 450.667603,361.402924 
	C450.129852,361.295013 448.768311,363.097351 448.580566,364.171173 
	C448.443451,364.955078 449.931763,366.821136 450.149872,366.739868 
	C451.577332,366.208252 452.856079,365.277405 454.179626,363.674103 
M478.496033,365.757111 
	C478.301239,364.530273 478.442780,363.053375 477.785950,362.170135 
	C477.389954,361.637665 475.405518,361.602417 474.768555,362.121429 
	C474.102844,362.663910 473.715271,364.851746 474.046783,365.075623 
	C475.152771,365.822601 476.635498,366.011780 478.496033,365.757111 
M462.384583,365.367157 
	C463.324371,365.668823 464.264160,365.970490 465.203949,366.272156 
	C465.014709,364.411285 464.825500,362.550385 464.636261,360.689514 
	C464.059082,360.725281 463.481873,360.761078 462.904694,360.796875 
	C462.708588,362.002960 462.512451,363.209076 462.384583,365.367157 
M458.380890,366.887390 
	C458.519165,366.331940 458.732178,365.776947 458.735779,365.220612 
	C458.736572,365.102448 457.974030,364.979309 457.563171,364.858429 
	C457.557770,365.576904 457.552338,366.295380 458.380890,366.887390 
M424.479706,364.714874 
	C423.972015,364.959778 423.464325,365.204712 422.956635,365.449646 
	C423.167877,365.816986 423.379120,366.184326 423.590332,366.551697 
	C423.970673,366.198151 424.351013,365.844604 424.479706,364.714874 
z"/>
<path fill="#8F8F91" opacity="1.000000" stroke="none" 
	d="
M368.698608,356.090942 
	C370.198730,356.020599 371.318573,355.963226 372.271484,355.914398 
	C372.080414,359.083649 371.783264,361.966278 371.825745,364.843872 
	C371.835541,365.507355 372.949402,366.572357 373.666260,366.674683 
	C374.234467,366.755829 375.641571,365.407928 375.532684,365.103607 
	C374.309326,361.683472 375.341644,359.474915 378.956665,359.319885 
	C381.364136,359.216675 383.811890,360.053528 387.211700,360.635742 
	C392.489288,357.364594 394.528687,358.163849 396.724426,365.297943 
	C396.941528,366.003387 397.954376,366.463867 398.597900,367.038055 
	C399.088409,366.306396 400.044006,365.529053 399.977509,364.852051 
	C399.813965,363.185577 399.180634,361.565216 398.664856,359.663025 
	C400.818726,359.508881 402.929993,359.255737 405.043915,359.231049 
	C408.009338,359.196350 410.479156,359.464844 409.063660,363.763458 
	C408.652527,365.012146 410.098450,366.872345 410.707611,368.490875 
	C402.773590,370.979034 387.874268,369.253143 386.222870,366.354401 
	C383.776550,367.322754 381.530090,368.950775 379.293732,368.936951 
	C375.171600,368.911591 371.065857,367.814606 366.929169,367.411438 
	C365.926025,367.313690 364.828491,368.177277 363.775299,368.601135 
	C358.453888,370.742767 354.531158,368.206848 354.234283,362.601105 
	C354.127472,360.584442 353.514832,358.594604 353.039856,356.103882 
	C357.869049,356.103882 363.093658,356.103882 368.698608,356.090942 
M363.612274,359.398590 
	C362.136322,358.864929 360.616638,357.863953 359.203003,357.996307 
	C358.504517,358.061676 357.462830,360.250641 357.535370,361.419220 
	C357.647003,363.217621 358.583954,364.964813 359.170776,366.733734 
	C360.620728,366.100067 362.542786,365.825256 363.378967,364.725098 
	C364.116302,363.754974 363.641266,361.863342 363.612274,359.398590 
M366.748016,360.701080 
	C366.748016,362.891418 366.748016,365.081787 366.748016,367.272125 
	C367.245056,367.433624 367.742065,367.595154 368.239105,367.756653 
	C368.948975,366.634064 370.171387,365.548157 370.255005,364.380707 
	C370.399719,362.359833 369.838531,360.288422 369.573395,358.238159 
	C368.644012,358.745056 367.714630,359.251923 366.748016,360.701080 
M402.921234,364.599274 
	C403.762634,365.535706 404.604004,366.472137 405.445374,367.408600 
	C406.024994,366.751007 407.053131,366.114410 407.085114,365.431183 
	C407.141022,364.237457 406.584351,363.015045 406.284363,361.804657 
	C405.190186,362.428741 404.095978,363.052856 402.921234,364.599274 
z"/>
<path fill="#9316BC" opacity="1.000000" stroke="none" 
	d="
M268.502502,334.920288 
	C268.156433,337.260010 267.486786,339.713501 266.761688,342.370178 
	C272.267792,344.456085 277.533264,344.665039 281.652893,338.927490 
	C282.266815,338.072479 283.503174,337.664337 284.815857,337.070984 
	C279.610748,346.218353 271.347839,352.452637 262.273224,357.534790 
	C253.218857,362.605560 243.273590,365.033508 232.862122,365.372345 
	C230.231934,365.457947 226.873062,366.170624 226.695023,362.350128 
	C226.531097,358.832764 229.760651,359.242126 232.232773,359.021332 
	C248.564087,357.562897 260.125824,348.918060 268.502502,334.920288 
z"/>
<path fill="#8F8F91" opacity="1.000000" stroke="none" 
	d="
M528.771484,366.795868 
	C522.796143,371.215088 520.634277,370.401672 516.046387,361.005432 
	C515.841553,363.661774 515.689514,365.163574 515.616211,366.669220 
	C515.369873,371.725983 511.056305,374.134583 506.507294,371.777161 
	C504.141754,370.551300 501.727539,369.419342 498.804962,367.984589 
	C498.831848,367.633972 498.920502,366.477783 499.020020,365.179932 
	C496.919495,365.179932 495.150513,365.179932 492.958221,365.179932 
	C493.428833,366.481781 493.771881,367.430786 494.263000,368.789429 
	C491.866638,368.789429 489.846832,368.789429 488.082123,368.789429 
	C490.131104,364.988800 492.031067,361.418152 493.975555,357.871948 
	C495.627686,354.858948 497.316467,354.817657 498.886688,357.936584 
	C500.209747,360.564545 501.469086,363.224609 502.683228,365.719635 
	C504.299866,363.460358 505.300781,360.738586 507.194794,359.778107 
	C509.181458,358.770630 512.024780,359.403625 514.493591,359.405212 
	C520.988586,359.409363 527.486206,359.587769 533.977966,359.458557 
	C541.521423,359.308441 542.182800,359.964905 540.996643,368.060669 
	C537.285889,368.060669 533.505920,368.060669 529.956055,367.629486 
	C530.612793,365.936249 531.039368,364.674194 531.466003,363.412140 
	C530.915161,363.261353 530.364319,363.110565 529.813538,362.959808 
	C529.466187,364.238495 529.118835,365.517181 528.771484,366.795868 
M508.757874,361.386292 
	C508.582886,363.132782 508.407928,364.879303 508.232910,366.625793 
	C509.651428,366.271484 511.878326,366.345673 512.336060,365.482147 
	C513.679199,362.948120 512.120056,361.548431 508.757874,361.386292 
M536.495667,361.528992 
	C535.827332,362.181213 534.735840,362.753815 534.594543,363.505157 
	C534.405457,364.510376 534.745911,365.773560 535.273071,366.686981 
	C535.529297,367.130981 537.263733,367.354279 537.402832,367.122253 
	C537.958130,366.195892 538.350403,365.061646 538.405029,363.984161 
	C538.440979,363.274261 537.796875,362.529877 536.495667,361.528992 
M522.818420,366.987213 
	C523.875244,366.715851 524.932007,366.444489 525.988831,366.173096 
	C525.700317,365.625366 525.411743,365.077637 525.123230,364.529877 
	C524.112793,365.260071 523.102356,365.990295 522.818420,366.987213 
z"/>
<path fill="#9316BC" opacity="1.000000" stroke="none" 
	d="
M298.129395,340.348145 
	C299.169434,340.845764 300.230560,341.738098 301.349213,342.551270 
	C304.098969,344.550323 306.670258,347.201782 309.751434,348.118713 
	C310.838623,348.442261 313.198364,344.489807 315.023102,342.102539 
	C315.727966,342.621918 316.603241,343.440460 317.012726,344.448273 
	C321.937408,356.568115 330.817352,363.983093 343.439514,367.211121 
	C344.839996,367.569275 345.913147,369.207550 347.138092,370.252136 
	C345.658966,370.888458 344.181335,372.073486 342.700409,372.077606 
	C324.447388,372.127869 304.516388,358.003113 298.129395,340.348145 
z"/>
<path fill="#8F8F91" opacity="1.000000" stroke="none" 
	d="
M818.052002,367.076996 
	C819.525818,359.045868 820.160400,358.781799 828.370483,359.986786 
	C830.089966,360.239136 832.085815,358.607635 834.172729,357.755005 
	C839.054382,360.641418 839.590088,360.530518 842.335144,355.205292 
	C843.025208,359.127197 843.615784,362.483734 844.457275,367.265961 
	C846.254333,359.392853 850.037292,357.758270 856.348633,360.310272 
	C858.250061,361.079102 861.043884,359.729095 863.407776,359.246216 
	C867.590271,358.391815 869.813477,359.726471 869.665833,364.313660 
	C869.621277,365.695160 870.243713,367.098083 870.658875,368.922974 
	C869.201233,369.023987 867.770203,369.206451 866.338867,369.208954 
	C856.134460,369.226746 845.927917,369.299316 835.728516,369.070496 
	C834.607544,369.045349 833.203735,367.404297 832.523071,366.182861 
	C831.906067,365.075684 832.097595,363.517975 831.818115,361.215088 
	C828.046204,370.146057 825.538086,371.013733 818.340698,366.838226 
	C818.024109,367.036346 818.052002,367.076996 818.052002,367.076996 
M851.493408,361.079437 
	C850.499268,362.313934 849.343079,363.466736 848.645325,364.850586 
	C848.502625,365.133575 850.050720,366.851318 850.870850,366.892822 
	C851.939575,366.946869 854.046448,365.810303 853.989746,365.496033 
	C853.718140,363.991699 852.866516,362.592102 851.493408,361.079437 
M827.513062,364.473175 
	C827.239868,361.770447 825.744568,360.319672 823.247009,361.620483 
	C822.378174,362.072968 821.702332,364.882263 822.266907,365.721680 
	C823.849731,368.075104 825.827271,367.588776 827.513062,364.473175 
M862.699768,367.122223 
	C863.977600,366.428162 865.627502,365.992859 866.369507,364.926086 
	C866.717834,364.425323 865.317383,362.708160 864.709290,361.542206 
	C863.983215,363.094238 863.257141,364.646240 862.699768,367.122223 
M837.521790,361.410736 
	C837.102295,362.591705 836.682800,363.772675 836.263306,364.953674 
	C837.471985,364.963287 838.680664,364.972900 839.889343,364.982483 
	C839.451294,363.782410 839.013306,362.582367 837.521790,361.410736 
M858.489685,362.173218 
	C858.266296,363.358643 858.042908,364.544098 857.819519,365.729553 
	C858.282166,365.741608 858.744812,365.753693 859.207458,365.765747 
	C859.207458,364.751770 859.207458,363.737762 858.489685,362.173218 
z"/>
<path fill="#8F8F91" opacity="1.000000" stroke="none" 
	d="
M635.841553,360.799438 
	C636.348267,363.016327 636.607544,364.963928 636.868530,366.924896 
	C640.112976,366.419067 640.760986,362.155212 638.708984,355.325439 
	C640.392456,356.579437 642.075867,357.833435 644.192566,359.410126 
	C644.690979,358.843079 645.610962,357.107422 647.045349,356.362885 
	C648.415344,355.651733 650.320862,355.972321 653.154846,355.746704 
	C648.577087,359.103058 647.524780,364.853790 650.417297,369.009705 
	C644.281250,368.604370 638.591003,371.260590 633.597107,365.538055 
	C632.174255,363.907562 627.951721,364.720245 625.536987,364.467468 
	C622.875000,365.266937 624.230042,371.794586 619.791992,368.039398 
	C618.055664,366.570160 617.806030,363.343903 616.414551,359.701447 
	C615.286743,362.943390 614.692505,364.995636 613.840088,366.934387 
	C613.494812,367.719666 612.463074,368.874298 611.961243,368.773865 
	C611.040955,368.589691 609.862854,367.763489 609.529907,366.915344 
	C608.215698,363.567596 607.187866,360.107422 605.906738,356.245605 
	C607.341187,356.172668 609.048889,356.085815 610.774170,355.998077 
	C610.774170,358.450836 610.774170,360.669952 610.774170,362.889038 
	C611.229797,362.989258 611.685425,363.089447 612.141052,363.189636 
	C612.765137,361.631744 613.253540,359.998779 614.059265,358.541321 
	C614.633240,357.503082 615.634155,356.700928 616.444580,355.793427 
	C617.406738,356.747711 618.636658,357.554016 619.265747,358.692352 
	C620.123657,360.244507 620.523560,362.049744 622.242920,363.662323 
	C622.408203,361.301727 622.573547,358.941162 622.751343,356.402802 
	C626.667358,357.661316 631.130737,359.095764 635.841553,360.799438 
M642.763916,367.410583 
	C643.623291,367.074188 645.236755,366.691925 645.219543,366.408844 
	C645.108582,364.584930 644.641052,362.782654 644.290588,360.973267 
	C643.692505,361.094055 643.094421,361.214874 642.496338,361.335663 
	C642.496338,363.054413 642.496338,364.773163 642.763916,367.410583 
M626.928284,360.493744 
	C626.742859,360.421509 626.557434,360.349243 626.372009,360.277008 
	C626.430420,360.485046 626.488892,360.693054 626.928284,360.493744 
z"/>
<path fill="#8F8F91" opacity="1.000000" stroke="none" 
	d="
M818.007812,367.017975 
	C817.271240,367.665741 816.587646,368.852966 815.824158,368.906708 
	C812.713989,369.125885 809.579407,368.997955 806.029053,368.997955 
	C806.414856,367.902527 806.851013,367.300201 806.770996,366.776825 
	C806.484802,364.906372 806.023376,363.062714 805.628296,361.208923 
	C804.791321,362.739960 803.906982,364.247620 803.134583,365.810577 
	C802.641296,366.808685 802.313538,367.888611 800.804443,368.734741 
	C800.597351,366.524567 800.390259,364.314423 800.183167,362.104248 
	C798.175293,365.881256 796.806641,370.321320 791.790588,368.966156 
	C789.237305,368.276398 787.324951,365.213898 784.317749,362.496460 
	C784.504639,362.334808 782.956177,363.027618 782.798035,363.956970 
	C782.539062,365.479126 783.184082,367.155090 783.484741,368.991516 
	C782.523621,368.991516 780.924133,368.991516 779.181030,368.991516 
	C779.181030,366.689850 779.181030,364.479980 779.181030,361.178009 
	C774.571228,363.827454 770.681396,366.063080 766.330261,368.563843 
	C766.330261,364.412048 766.330261,360.593781 766.330261,355.973938 
	C768.016785,356.071075 770.777710,355.933319 773.410461,356.449402 
	C777.654724,357.281342 781.761230,359.016022 786.024353,359.497589 
	C790.645203,360.019501 795.379028,359.560577 800.063171,359.497681 
	C804.509644,359.437988 808.968750,359.086853 813.398193,359.320892 
	C818.397400,359.584991 815.935791,364.260132 817.681885,366.891388 
	C818.052002,367.076996 818.024109,367.036346 818.007812,367.017975 
M789.399109,364.464081 
	C790.218933,367.157745 792.216309,367.929749 794.238525,366.370178 
	C795.006348,365.778015 795.020935,362.607483 794.230469,361.905823 
	C792.106628,360.020569 790.357910,361.334412 789.399109,364.464081 
M810.085754,365.484436 
	C811.053589,365.999115 812.021362,366.513824 812.989258,367.028503 
	C813.307007,365.679779 813.849304,364.329285 813.838684,362.983185 
	C813.834106,362.393829 812.699951,361.813354 812.078735,361.228821 
	C811.403748,362.372284 810.728699,363.515747 810.085754,365.484436 
z"/>
<path fill="#8F8F91" opacity="1.000000" stroke="none" 
	d="
M673.471985,360.652863 
	C674.873596,360.212372 676.247986,359.618744 677.682556,359.363190 
	C680.695862,358.826416 683.621399,359.202393 684.461243,362.669647 
	C685.200684,365.721985 684.121521,368.385376 680.646851,369.061127 
	C677.430054,369.686798 674.628418,368.966400 673.525818,365.371063 
	C673.197876,364.301483 673.179932,363.136902 672.892029,361.119507 
	C671.343445,361.986786 669.399963,362.505066 669.314148,363.240204 
	C669.126892,364.844513 669.884399,366.559113 670.399109,368.872284 
	C665.526611,368.872284 660.056396,369.082916 654.641418,368.631470 
	C653.881897,368.568115 652.568665,365.026642 652.997253,363.516815 
	C653.480408,361.814667 655.486938,359.706940 657.123169,359.415192 
	C658.638123,359.145081 660.853027,360.729034 662.180359,362.069977 
	C663.466492,363.369293 660.875732,367.439148 665.025330,366.698181 
	C665.590149,366.597290 665.425415,362.411011 665.653137,359.391266 
	C667.143372,359.391266 669.549500,359.391266 672.034180,359.719971 
	C672.565796,360.250092 673.018921,360.451477 673.471985,360.652863 
M677.267944,365.412140 
	C678.643127,365.848846 680.018311,366.285522 681.393494,366.722198 
	C681.496338,366.155823 681.599243,365.589447 681.702148,365.023071 
	C680.450623,365.023071 679.199158,365.023071 677.267944,365.412140 
z"/>
<path fill="#DC1EC1" opacity="1.000000" stroke="none" 
	d="
M305.951996,319.621002 
	C301.198853,316.721802 299.699493,312.797516 301.029266,307.933441 
	C302.110107,303.980042 305.019592,302.016937 309.065796,301.717163 
	C314.822357,301.290619 318.863831,304.635834 319.198090,310.091400 
	C319.545624,315.764160 315.880096,319.944427 310.179260,320.245605 
	C308.883514,320.314056 307.568359,320.015503 305.951996,319.621002 
z"/>
<path fill="#8F8F91" opacity="1.000000" stroke="none" 
	d="
M580.277832,360.321136 
	C583.701172,359.352448 586.405090,358.527344 590.060608,359.971527 
	C592.915344,361.099335 596.806641,359.603149 600.600098,359.784515 
	C597.174866,362.340820 594.969543,364.797089 598.771973,368.428467 
	C589.956238,368.428467 581.523132,368.428467 573.640442,368.428467 
	C573.640442,365.657898 573.640442,362.923889 573.640442,359.320343 
	C574.940369,358.110748 576.061951,353.904877 579.387451,355.726807 
	C579.635803,357.729553 579.784668,358.929993 580.277832,360.321136 
M587.054993,361.247864 
	C584.356018,360.819794 582.554504,361.853668 583.188171,364.668121 
	C583.408630,365.647247 585.510315,366.202820 586.752808,366.951843 
	C587.070312,365.177979 587.387817,363.404114 587.054993,361.247864 
M591.459106,362.776398 
	C591.616333,364.194519 591.773499,365.612640 592.054688,368.149017 
	C594.874329,363.089142 594.686890,362.322937 591.459106,362.776398 
M579.521423,364.668610 
	C578.778198,364.934540 578.034973,365.200470 577.291748,365.466370 
	C577.720886,365.992645 578.149963,366.518921 578.579102,367.045197 
	C579.056335,366.509308 579.533630,365.973450 579.521423,364.668610 
z"/>
<path fill="#8F8F91" opacity="1.000000" stroke="none" 
	d="
M551.557068,366.160828 
	C552.259033,366.387054 552.695374,366.608154 553.131653,366.829285 
	C551.227966,367.488892 548.999634,369.080017 547.506958,368.559967 
	C545.837830,367.978394 543.748108,365.414917 543.846191,363.838806 
	C543.946167,362.234192 546.384094,359.608704 547.974915,359.470978 
	C553.977722,358.951508 560.052368,359.262299 566.414429,359.884766 
	C562.313110,363.413422 564.458130,371.922058 554.876038,371.993103 
	C560.044800,368.377228 557.570007,365.618317 555.309814,362.468323 
	C552.729370,366.053772 549.149536,358.141052 546.801147,363.322449 
	C546.216248,364.612885 547.647278,366.816986 548.370544,369.375305 
	C549.835327,367.760712 550.563354,366.958191 551.557068,366.160828 
z"/>
<path fill="#9316BC" opacity="1.000000" stroke="none" 
	d="
M289.324463,330.982239 
	C289.492157,330.444366 289.925995,329.767426 290.692169,329.050842 
	C290.546539,329.621826 290.068573,330.232483 289.324463,330.982239 
z"/>
<path fill="#9316BC" opacity="1.000000" stroke="none" 
	d="
M315.010315,340.620911 
	C314.773315,340.112244 314.615509,339.223999 314.705383,338.144104 
	C314.998566,338.715363 315.044037,339.478363 315.010315,340.620911 
z"/>
<path fill="#9316BC" opacity="1.000000" stroke="none" 
	d="
M269.657654,331.820709 
	C269.752716,332.544189 269.596954,333.554260 269.108398,334.765381 
	C268.986023,334.013428 269.196442,333.060333 269.657654,331.820709 
z"/>
<path fill="#9316BC" opacity="1.000000" stroke="none" 
	d="
M288.268860,332.877197 
	C288.207520,332.472992 288.396179,331.889832 288.864014,331.160278 
	C288.935120,331.575348 288.726990,332.136810 288.268860,332.877197 
z"/>
<path fill="#9316BC" opacity="1.000000" stroke="none" 
	d="
M287.300659,334.046875 
	C287.208893,333.807465 287.394623,333.519257 287.816772,333.118652 
	C287.894836,333.336823 287.736481,333.667419 287.300659,334.046875 
z"/>
<path fill="#9316BC" opacity="1.000000" stroke="none" 
	d="
M285.295044,337.051941 
	C285.087433,336.787628 285.238098,336.499695 285.698669,336.137207 
	C285.793182,336.333801 285.674744,336.655701 285.295044,337.051941 
z"/>
<path fill="#9316BC" opacity="1.000000" stroke="none" 
	d="
M286.324585,335.179688 
	C286.227600,334.975677 286.397400,334.626160 286.833771,334.146606 
	C286.930664,334.355804 286.761017,334.695007 286.324585,335.179688 
z"/>
<path fill="#FFFFFF" opacity="1.000000" stroke="none" 
	d="
M1003.543823,363.159790 
	C1003.076721,364.519409 1002.459778,365.964081 1001.367310,366.734436 
	C1000.817017,367.122406 998.824585,366.569702 998.516541,365.938629 
	C998.052368,364.987396 998.492432,363.594788 998.548157,362.389832 
	C1000.097900,362.581940 1001.647644,362.774048 1003.543823,363.159790 
z"/>
<path fill="#FFFFFF" opacity="1.000000" stroke="none" 
	d="
M950.951599,367.849976 
	C949.566345,367.176666 948.531372,366.138428 947.496460,365.100159 
	C948.212280,364.662994 948.928101,364.225830 949.643982,363.788696 
	C950.196594,365.020844 950.749268,366.252960 950.951599,367.849976 
z"/>
<path fill="#FFFFFF" opacity="1.000000" stroke="none" 
	d="
M951.749512,361.324341 
	C950.180603,360.967224 948.806458,360.389221 947.432373,359.811188 
	C947.707275,359.162262 947.982178,358.513336 948.257080,357.864441 
	C949.551697,358.566406 950.846252,359.268341 952.249634,360.327301 
	C952.220398,360.823975 952.082336,360.963684 951.749512,361.324341 
z"/>
<path fill="#FFFFFF" opacity="1.000000" stroke="none" 
	d="
M1012.758606,364.983582 
	C1012.148621,365.652679 1011.149292,366.262207 1010.149902,366.871735 
	C1009.892334,366.356293 1009.634766,365.840820 1009.377258,365.325378 
	C1010.374573,365.191589 1011.371887,365.057800 1012.758606,364.983582 
z"/>
<path fill="#FFFFFF" opacity="1.000000" stroke="none" 
	d="
M960.235718,366.593109 
	C961.078003,365.752625 962.233948,365.187988 963.389954,364.623322 
	C963.554199,365.136505 963.718445,365.649689 963.882690,366.162872 
	C962.771606,366.398224 961.660461,366.633575 960.235718,366.593109 
z"/>
<path fill="#FFFFFF" opacity="1.000000" stroke="none" 
	d="
M968.238647,362.235840 
	C968.813721,363.842621 968.953735,365.534576 969.093750,367.226532 
	C968.397949,367.165802 967.702148,367.105103 967.006348,367.044373 
	C967.272095,365.469940 967.537903,363.895477 968.238647,362.235840 
z"/>
<path fill="#FFFFFF" opacity="1.000000" stroke="none" 
	d="
M982.832458,364.293701 
	C982.178711,363.807404 981.740051,362.979126 981.301453,362.150818 
	C981.727112,362.022919 982.152710,361.895020 982.578369,361.767151 
	C982.734741,362.495361 982.891174,363.223541 982.832458,364.293701 
z"/>
<path fill="#FFFFFF" opacity="1.000000" stroke="none" 
	d="
M945.342041,364.654114 
	C945.359497,364.384857 945.550171,364.329529 945.740906,364.274170 
	C945.665649,364.472107 945.590454,364.670074 945.342041,364.654114 
z"/>
<path fill="#FFFFFF" opacity="1.000000" stroke="none" 
	d="
M740.479614,358.537262 
	C741.330200,359.645630 742.749084,360.686462 742.890869,361.879120 
	C743.078064,363.453461 742.263611,365.146851 741.879761,366.789062 
	C741.085938,366.259277 739.765808,365.854340 739.604492,365.174469 
	C739.236267,363.622101 739.435303,361.935089 739.682556,359.664673 
	C740.133972,358.863525 740.306763,358.700409 740.479614,358.537262 
z"/>
<path fill="#FFFFFF" opacity="1.000000" stroke="none" 
	d="
M726.863525,361.956055 
	C730.600891,360.287201 730.294250,362.915222 730.067627,364.752197 
	C729.957031,365.648438 728.643372,366.396271 727.874207,367.211273 
	C727.448059,365.559601 727.021912,363.907959 726.863525,361.956055 
z"/>
<path fill="#FFFFFF" opacity="1.000000" stroke="none" 
	d="
M713.404053,365.754578 
	C713.968994,364.123535 714.641541,362.939514 715.314087,361.755493 
	C715.842407,362.838684 716.370789,363.921844 716.899109,365.005005 
	C715.769958,365.403900 714.640808,365.802765 713.404053,365.754578 
z"/>
<path fill="#FFFFFF" opacity="1.000000" stroke="none" 
	d="
M740.257446,358.256592 
	C740.475891,358.479248 740.406616,358.509186 740.443115,358.523224 
	C740.306763,358.700409 740.133972,358.863525 739.678467,359.251038 
	C739.280396,358.953552 739.165161,358.431641 739.319763,357.755493 
	C739.739380,357.745483 739.889160,357.889709 740.257446,358.256592 
z"/>
<path fill="#FFFFFF" opacity="1.000000" stroke="none" 
	d="
M895.210510,361.093689 
	C898.462341,361.780090 898.972412,363.869751 897.502075,365.826813 
	C896.914124,366.609436 894.503052,366.022491 892.921875,366.058929 
	C893.554688,364.409454 894.187500,362.759979 895.210510,361.093689 
z"/>
<path fill="#FFFFFF" opacity="1.000000" stroke="none" 
	d="
M909.897217,362.664062 
	C910.728577,363.293915 911.281067,363.637512 913.268738,364.873596 
	C910.017700,365.501343 908.003296,365.985474 905.963928,366.140015 
	C905.755127,366.155853 905.396729,364.197571 905.107788,363.155365 
	C906.611267,362.896179 908.114807,362.636993 909.897217,362.664062 
z"/>
<path fill="#FFFFFF" opacity="1.000000" stroke="none" 
	d="
M885.490906,365.809204 
	C882.655762,367.981171 881.598145,366.639282 880.804077,364.817230 
	C881.091553,364.261841 881.378967,363.706451 881.666382,363.151031 
	C882.973328,363.886658 884.280273,364.622284 885.490906,365.809204 
z"/>
<path fill="#FFFFFF" opacity="1.000000" stroke="none" 
	d="
M885.774292,361.286774 
	C884.054626,361.010071 882.565613,360.494080 881.076660,359.978088 
	C881.275146,359.331573 881.473694,358.685059 881.672180,358.038513 
	C883.249573,358.644348 884.826904,359.250153 886.448303,360.225677 
	C886.329895,360.746094 886.167419,360.896790 885.774292,361.286774 
z"/>
<path fill="#FFFFFF" opacity="1.000000" stroke="none" 
	d="
M913.074707,367.685516 
	C912.897705,367.042114 913.041504,366.623840 913.268982,366.257416 
	C913.303284,366.202057 913.727051,366.388367 913.970764,366.462952 
	C913.788086,366.951111 913.605408,367.439301 913.074707,367.685516 
z"/>
<path fill="#FFFFFF" opacity="1.000000" stroke="none" 
	d="
M913.211121,364.739502 
	C913.208679,364.421875 913.438965,364.340942 913.669312,364.260010 
	C913.594116,364.498749 913.518982,364.737488 913.211121,364.739502 
z"/>
<path fill="#FFFFFF" opacity="1.000000" stroke="none" 
	d="
M913.321960,362.271301 
	C913.602539,362.277954 913.667480,362.504456 913.732422,362.730927 
	C913.523743,362.650970 913.315002,362.571045 913.321960,362.271301 
z"/>
<path fill="#FFFFFF" opacity="1.000000" stroke="none" 
	d="
M454.181519,364.075562 
	C452.856079,365.277405 451.577332,366.208252 450.149872,366.739868 
	C449.931763,366.821136 448.443451,364.955078 448.580566,364.171173 
	C448.768311,363.097351 450.129852,361.295013 450.667603,361.402924 
	C451.938995,361.658081 453.021027,362.856842 454.181519,364.075562 
z"/>
<path fill="#FFFFFF" opacity="1.000000" stroke="none" 
	d="
M478.234924,366.085907 
	C476.635498,366.011780 475.152771,365.822601 474.046783,365.075623 
	C473.715271,364.851746 474.102844,362.663910 474.768555,362.121429 
	C475.405518,361.602417 477.389954,361.637665 477.785950,362.170135 
	C478.442780,363.053375 478.301239,364.530273 478.234924,366.085907 
z"/>
<path fill="#FFFFFF" opacity="1.000000" stroke="none" 
	d="
M462.350464,364.891174 
	C462.512451,363.209076 462.708588,362.002960 462.904694,360.796875 
	C463.481873,360.761078 464.059082,360.725281 464.636261,360.689514 
	C464.825500,362.550385 465.014709,364.411285 465.203949,366.272156 
	C464.264160,365.970490 463.324371,365.668823 462.350464,364.891174 
z"/>
<path fill="#FFFFFF" opacity="1.000000" stroke="none" 
	d="
M457.963928,366.950623 
	C457.552338,366.295380 457.557770,365.576904 457.563171,364.858429 
	C457.974030,364.979309 458.736572,365.102448 458.735779,365.220612 
	C458.732178,365.776947 458.519165,366.331940 457.963928,366.950623 
z"/>
<path fill="#FFFFFF" opacity="1.000000" stroke="none" 
	d="
M424.605530,365.102966 
	C424.351013,365.844604 423.970673,366.198151 423.590332,366.551697 
	C423.379120,366.184326 423.167877,365.816986 422.956635,365.449646 
	C423.464325,365.204712 423.972015,364.959778 424.605530,365.102966 
z"/>
<path fill="#FFFFFF" opacity="1.000000" stroke="none" 
	d="
M363.656921,359.888611 
	C363.641266,361.863342 364.116302,363.754974 363.378967,364.725098 
	C362.542786,365.825256 360.620728,366.100067 359.170776,366.733734 
	C358.583954,364.964813 357.647003,363.217621 357.535370,361.419220 
	C357.462830,360.250641 358.504517,358.061676 359.203003,357.996307 
	C360.616638,357.863953 362.136322,358.864929 363.656921,359.888611 
z"/>
<path fill="#FFFFFF" opacity="1.000000" stroke="none" 
	d="
M366.766632,360.229950 
	C367.714630,359.251923 368.644012,358.745056 369.573425,358.238159 
	C369.838531,360.288422 370.399719,362.359833 370.255005,364.380707 
	C370.171387,365.548157 368.948975,366.634064 368.239105,367.756653 
	C367.742065,367.595154 367.245056,367.433624 366.748016,367.272125 
	C366.748016,365.081787 366.748016,362.891418 366.766632,360.229950 
z"/>
<path fill="#FFFFFF" opacity="1.000000" stroke="none" 
	d="
M402.961517,364.138123 
	C404.095978,363.052856 405.190186,362.428741 406.284363,361.804657 
	C406.584351,363.015045 407.141022,364.237457 407.085114,365.431183 
	C407.053131,366.114410 406.024994,366.751007 405.445374,367.408600 
	C404.604004,366.472137 403.762634,365.535706 402.961517,364.138123 
z"/>
<path fill="#FFFFFF" opacity="1.000000" stroke="none" 
	d="
M509.130768,361.297302 
	C512.120056,361.548431 513.679199,362.948120 512.336060,365.482147 
	C511.878326,366.345673 509.651428,366.271484 508.232910,366.625793 
	C508.407928,364.879303 508.582886,363.132782 509.130768,361.297302 
z"/>
<path fill="#FFFFFF" opacity="1.000000" stroke="none" 
	d="
M536.976440,361.664978 
	C537.796875,362.529877 538.440979,363.274261 538.405029,363.984161 
	C538.350403,365.061646 537.958130,366.195892 537.402832,367.122253 
	C537.263733,367.354279 535.529297,367.130981 535.273071,366.686981 
	C534.745911,365.773560 534.405457,364.510376 534.594543,363.505157 
	C534.735840,362.753815 535.827332,362.181213 536.976440,361.664978 
z"/>
<path fill="#FFFFFF" opacity="1.000000" stroke="none" 
	d="
M522.455200,366.853851 
	C523.102356,365.990295 524.112793,365.260071 525.123230,364.529877 
	C525.411743,365.077637 525.700317,365.625366 525.988831,366.173096 
	C524.932007,366.444489 523.875244,366.715851 522.455200,366.853851 
z"/>
<path fill="#FFFFFF" opacity="1.000000" stroke="none" 
	d="
M528.951416,366.983093 
	C529.118835,365.517181 529.466187,364.238495 529.813538,362.959808 
	C530.364319,363.110565 530.915161,363.261353 531.466003,363.412140 
	C531.039368,364.674194 530.612793,365.936249 529.837830,367.372314 
	C529.370117,367.421021 529.250732,367.295685 528.951416,366.983093 
z"/>
<path fill="#FFFFFF" opacity="1.000000" stroke="none" 
	d="
M851.857239,361.117371 
	C852.866516,362.592102 853.718140,363.991699 853.989746,365.496033 
	C854.046448,365.810303 851.939575,366.946869 850.870850,366.892822 
	C850.050720,366.851318 848.502625,365.133575 848.645325,364.850586 
	C849.343079,363.466736 850.499268,362.313934 851.857239,361.117371 
z"/>
<path fill="#FFFFFF" opacity="1.000000" stroke="none" 
	d="
M827.389648,364.823486 
	C825.827271,367.588776 823.849731,368.075104 822.266907,365.721680 
	C821.702332,364.882263 822.378174,362.072968 823.247009,361.620483 
	C825.744568,360.319672 827.239868,361.770447 827.389648,364.823486 
z"/>
<path fill="#FFFFFF" opacity="1.000000" stroke="none" 
	d="
M862.615356,366.660217 
	C863.257141,364.646240 863.983215,363.094238 864.709351,361.542236 
	C865.317383,362.708160 866.717834,364.425323 866.369507,364.926086 
	C865.627502,365.992859 863.977600,366.428162 862.615356,366.660217 
z"/>
<path fill="#FFFFFF" opacity="1.000000" stroke="none" 
	d="
M838.048523,361.396515 
	C839.013306,362.582367 839.451294,363.782410 839.889343,364.982483 
	C838.680664,364.972900 837.471985,364.963287 836.263306,364.953674 
	C836.682800,363.772675 837.102295,362.591705 838.048523,361.396515 
z"/>
<path fill="#FFFFFF" opacity="1.000000" stroke="none" 
	d="
M858.848572,362.448486 
	C859.207458,363.737762 859.207458,364.751770 859.207458,365.765747 
	C858.744812,365.753693 858.282166,365.741608 857.819519,365.729553 
	C858.042908,364.544098 858.266296,363.358643 858.848572,362.448486 
z"/>
<path fill="#FFFFFF" opacity="1.000000" stroke="none" 
	d="
M642.630127,366.951233 
	C642.496338,364.773163 642.496338,363.054413 642.496338,361.335663 
	C643.094421,361.214874 643.692505,361.094055 644.290588,360.973267 
	C644.641052,362.782654 645.108582,364.584930 645.219543,366.408844 
	C645.236755,366.691925 643.623291,367.074188 642.630127,366.951233 
z"/>
<path fill="#FFFFFF" opacity="1.000000" stroke="none" 
	d="
M626.737793,360.697418 
	C626.488892,360.693054 626.430420,360.485046 626.372009,360.277008 
	C626.557434,360.349243 626.742859,360.421509 626.737793,360.697418 
z"/>
<path fill="#FFFFFF" opacity="1.000000" stroke="none" 
	d="
M789.398438,364.099548 
	C790.357910,361.334412 792.106628,360.020569 794.230469,361.905823 
	C795.020935,362.607483 795.006348,365.778015 794.238525,366.370178 
	C792.216309,367.929749 790.218933,367.157745 789.398438,364.099548 
z"/>
<path fill="#FFFFFF" opacity="1.000000" stroke="none" 
	d="
M810.069702,365.071838 
	C810.728699,363.515747 811.403748,362.372284 812.078735,361.228821 
	C812.699951,361.813354 813.834106,362.393829 813.838684,362.983185 
	C813.849304,364.329285 813.307007,365.679779 812.989258,367.028503 
	C812.021362,366.513824 811.053589,365.999115 810.069702,365.071838 
z"/>
<path fill="#FFFFFF" opacity="1.000000" stroke="none" 
	d="
M677.607788,365.217590 
	C679.199158,365.023071 680.450623,365.023071 681.702148,365.023071 
	C681.599243,365.589447 681.496338,366.155823 681.393494,366.722198 
	C680.018311,366.285522 678.643127,365.848846 677.607788,365.217590 
z"/>
<path fill="#FFFFFF" opacity="1.000000" stroke="none" 
	d="
M673.277161,360.383484 
	C673.018921,360.451477 672.565796,360.250092 672.367859,359.841064 
	C672.776123,359.793671 672.929199,359.953888 673.277161,360.383484 
z"/>
<path fill="#FFFFFF" opacity="1.000000" stroke="none" 
	d="
M587.380127,361.439056 
	C587.387817,363.404114 587.070312,365.177979 586.752808,366.951843 
	C585.510315,366.202820 583.408630,365.647247 583.188171,364.668121 
	C582.554504,361.853668 584.356018,360.819794 587.380127,361.439056 
z"/>
<path fill="#FFFFFF" opacity="1.000000" stroke="none" 
	d="
M591.497559,362.325928 
	C594.686890,362.322937 594.874329,363.089142 592.054688,368.149017 
	C591.773499,365.612640 591.616333,364.194519 591.497559,362.325928 
z"/>
<path fill="#FFFFFF" opacity="1.000000" stroke="none" 
	d="
M579.766113,365.053101 
	C579.533630,365.973450 579.056335,366.509308 578.579102,367.045197 
	C578.149963,366.518921 577.720886,365.992645 577.291748,365.466370 
	C578.034973,365.200470 578.778198,364.934540 579.766113,365.053101 
z"/>
</svg>